<svg xmlns="http://www.w3.org/2000/svg" xmlns:xlink="http://www.w3.org/1999/xlink" width="53270" zoomAndPan="magnify" viewBox="0 0 39952.5 22445.999409" height="29928" preserveAspectRatio="xMidYMid meet" version="1.0"><defs><clipPath id="8ab8638695"><path d="M 0 0.140625 L 39952 0.140625 L 39952 22445.859375 L 0 22445.859375 Z M 0 0.140625 " clip-rule="nonzero"/></clipPath><clipPath id="82cdc90e07"><path d="M 5076 40 L 39676 40 L 39676 22445.859375 L 5076 22445.859375 Z M 5076 40 " clip-rule="nonzero"/></clipPath><clipPath id="ac59821622"><path d="M 19395 628 L 22460 628 L 22460 3703 L 19395 3703 Z M 19395 628 " clip-rule="nonzero"/></clipPath><clipPath id="1624882abd"><path d="M 38899.347656 8499.394531 C 37445.910156 7658.164062 35578.390625 7927.875 34502.378906 8470.390625 L 37353.601562 347.1875 L 26220.855469 7481.511719 L 22664.5625 7481.511719 L 22664.5625 347.1875 L 11995.21875 347.808594 L 11995.21875 7482.132812 L 8593.546875 7482.132812 L 8593.546875 11049.296875 L 5745.421875 11049.296875 L 5713.570312 11359.484375 C 5535.753906 13302.8125 5873.757812 15095.390625 6651.039062 16628.03125 L 6912.039062 17097.964844 C 7066.660156 17379.773438 7252.207031 17644.363281 7443.628906 17902.59375 C 7635.050781 18160.828125 7704.320312 18303.203125 7825.542969 18474.582031 C 9880 20788.585938 12943.050781 21905.261719 16479.242188 21905.261719 C 24310.507812 21905.261719 30956.90625 18425.261719 33898.890625 10607.589844 C 35984.734375 10822.238281 37987.082031 10285.613281 38899.347656 8499.394531 Z M 38899.347656 8499.394531 " clip-rule="evenodd"/></clipPath><clipPath id="20ce6871b5"><path d="M 19771 884 L 22083 884 L 22083 3447 L 19771 3447 Z M 19771 884 " clip-rule="nonzero"/></clipPath><clipPath id="9fbfb91d8b"><path d="M 38899.347656 8499.394531 C 37445.910156 7658.164062 35578.390625 7927.875 34502.378906 8470.390625 L 37353.601562 347.1875 L 26220.855469 7481.511719 L 22664.5625 7481.511719 L 22664.5625 347.1875 L 11995.21875 347.808594 L 11995.21875 7482.132812 L 8593.546875 7482.132812 L 8593.546875 11049.296875 L 5745.421875 11049.296875 L 5713.570312 11359.484375 C 5535.753906 13302.8125 5873.757812 15095.390625 6651.039062 16628.03125 L 6912.039062 17097.964844 C 7066.660156 17379.773438 7252.207031 17644.363281 7443.628906 17902.59375 C 7635.050781 18160.828125 7704.320312 18303.203125 7825.542969 18474.582031 C 9880 20788.585938 12943.050781 21905.261719 16479.242188 21905.261719 C 24310.507812 21905.261719 30956.90625 18425.261719 33898.890625 10607.589844 C 35984.734375 10822.238281 37987.082031 10285.613281 38899.347656 8499.394531 Z M 38899.347656 8499.394531 " clip-rule="evenodd"/></clipPath><clipPath id="72d23e9ac0"><path d="M 19650 763 L 22204 763 L 22204 3568 L 19650 3568 Z M 19650 763 " clip-rule="nonzero"/></clipPath><clipPath id="bf63f41ed2"><path d="M 38899.347656 8499.394531 C 37445.910156 7658.164062 35578.390625 7927.875 34502.378906 8470.390625 L 37353.601562 347.1875 L 26220.855469 7481.511719 L 22664.5625 7481.511719 L 22664.5625 347.1875 L 11995.21875 347.808594 L 11995.21875 7482.132812 L 8593.546875 7482.132812 L 8593.546875 11049.296875 L 5745.421875 11049.296875 L 5713.570312 11359.484375 C 5535.753906 13302.8125 5873.757812 15095.390625 6651.039062 16628.03125 L 6912.039062 17097.964844 C 7066.660156 17379.773438 7252.207031 17644.363281 7443.628906 17902.59375 C 7635.050781 18160.828125 7704.320312 18303.203125 7825.542969 18474.582031 C 9880 20788.585938 12943.050781 21905.261719 16479.242188 21905.261719 C 24310.507812 21905.261719 30956.90625 18425.261719 33898.890625 10607.589844 C 35984.734375 10822.238281 37987.082031 10285.613281 38899.347656 8499.394531 Z M 38899.347656 8499.394531 " clip-rule="evenodd"/></clipPath><clipPath id="627d382e87"><path d="M 22930 630 L 25996 630 L 25996 3704 L 22930 3704 Z M 22930 630 " clip-rule="nonzero"/></clipPath><clipPath id="d57ab2f805"><path d="M 38899.347656 8499.394531 C 37445.910156 7658.164062 35578.390625 7927.875 34502.378906 8470.390625 L 37353.601562 347.1875 L 26220.855469 7481.511719 L 22664.5625 7481.511719 L 22664.5625 347.1875 L 11995.21875 347.808594 L 11995.21875 7482.132812 L 8593.546875 7482.132812 L 8593.546875 11049.296875 L 5745.421875 11049.296875 L 5713.570312 11359.484375 C 5535.753906 13302.8125 5873.757812 15095.390625 6651.039062 16628.03125 L 6912.039062 17097.964844 C 7066.660156 17379.773438 7252.207031 17644.363281 7443.628906 17902.59375 C 7635.050781 18160.828125 7704.320312 18303.203125 7825.542969 18474.582031 C 9880 20788.585938 12943.050781 21905.261719 16479.242188 21905.261719 C 24310.507812 21905.261719 30956.90625 18425.261719 33898.890625 10607.589844 C 35984.734375 10822.238281 37987.082031 10285.613281 38899.347656 8499.394531 Z M 38899.347656 8499.394531 " clip-rule="evenodd"/></clipPath><clipPath id="a34065f756"><path d="M 23306 884 L 25619 884 L 25619 3447 L 23306 3447 Z M 23306 884 " clip-rule="nonzero"/></clipPath><clipPath id="b1313906ee"><path d="M 38899.347656 8499.394531 C 37445.910156 7658.164062 35578.390625 7927.875 34502.378906 8470.390625 L 37353.601562 347.1875 L 26220.855469 7481.511719 L 22664.5625 7481.511719 L 22664.5625 347.1875 L 11995.21875 347.808594 L 11995.21875 7482.132812 L 8593.546875 7482.132812 L 8593.546875 11049.296875 L 5745.421875 11049.296875 L 5713.570312 11359.484375 C 5535.753906 13302.8125 5873.757812 15095.390625 6651.039062 16628.03125 L 6912.039062 17097.964844 C 7066.660156 17379.773438 7252.207031 17644.363281 7443.628906 17902.59375 C 7635.050781 18160.828125 7704.320312 18303.203125 7825.542969 18474.582031 C 9880 20788.585938 12943.050781 21905.261719 16479.242188 21905.261719 C 24310.507812 21905.261719 30956.90625 18425.261719 33898.890625 10607.589844 C 35984.734375 10822.238281 37987.082031 10285.613281 38899.347656 8499.394531 Z M 38899.347656 8499.394531 " clip-rule="evenodd"/></clipPath><clipPath id="db7a546b55"><path d="M 23186 763 L 25739 763 L 25739 3568 L 23186 3568 Z M 23186 763 " clip-rule="nonzero"/></clipPath><clipPath id="e242bbc598"><path d="M 38899.347656 8499.394531 C 37445.910156 7658.164062 35578.390625 7927.875 34502.378906 8470.390625 L 37353.601562 347.1875 L 26220.855469 7481.511719 L 22664.5625 7481.511719 L 22664.5625 347.1875 L 11995.21875 347.808594 L 11995.21875 7482.132812 L 8593.546875 7482.132812 L 8593.546875 11049.296875 L 5745.421875 11049.296875 L 5713.570312 11359.484375 C 5535.753906 13302.8125 5873.757812 15095.390625 6651.039062 16628.03125 L 6912.039062 17097.964844 C 7066.660156 17379.773438 7252.207031 17644.363281 7443.628906 17902.59375 C 7635.050781 18160.828125 7704.320312 18303.203125 7825.542969 18474.582031 C 9880 20788.585938 12943.050781 21905.261719 16479.242188 21905.261719 C 24310.507812 21905.261719 30956.90625 18425.261719 33898.890625 10607.589844 C 35984.734375 10822.238281 37987.082031 10285.613281 38899.347656 8499.394531 Z M 38899.347656 8499.394531 " clip-rule="evenodd"/></clipPath><clipPath id="ee49f0bbe9"><path d="M 5667 4173 L 8318 4173 L 8318 7247 L 5667 7247 Z M 5667 4173 " clip-rule="nonzero"/></clipPath><clipPath id="caa0783c8e"><path d="M 38899.347656 8499.394531 C 37445.910156 7658.164062 35578.390625 7927.875 34502.378906 8470.390625 L 37353.601562 347.1875 L 26220.855469 7481.511719 L 22664.5625 7481.511719 L 22664.5625 347.1875 L 11995.21875 347.808594 L 11995.21875 7482.132812 L 8593.546875 7482.132812 L 8593.546875 11049.296875 L 5745.421875 11049.296875 L 5713.570312 11359.484375 C 5535.753906 13302.8125 5873.757812 15095.390625 6651.039062 16628.03125 L 6912.039062 17097.964844 C 7066.660156 17379.773438 7252.207031 17644.363281 7443.628906 17902.59375 C 7635.050781 18160.828125 7704.320312 18303.203125 7825.542969 18474.582031 C 9880 20788.585938 12943.050781 21905.261719 16479.242188 21905.261719 C 24310.507812 21905.261719 30956.90625 18425.261719 33898.890625 10607.589844 C 35984.734375 10822.238281 37987.082031 10285.613281 38899.347656 8499.394531 Z M 38899.347656 8499.394531 " clip-rule="evenodd"/></clipPath><clipPath id="d7abbd0b63"><path d="M 5667 7721 L 8318 7721 L 8318 10795 L 5667 10795 Z M 5667 7721 " clip-rule="nonzero"/></clipPath><clipPath id="ae31bc8ef4"><path d="M 38899.347656 8499.394531 C 37445.910156 7658.164062 35578.390625 7927.875 34502.378906 8470.390625 L 37353.601562 347.1875 L 26220.855469 7481.511719 L 22664.5625 7481.511719 L 22664.5625 347.1875 L 11995.21875 347.808594 L 11995.21875 7482.132812 L 8593.546875 7482.132812 L 8593.546875 11049.296875 L 5745.421875 11049.296875 L 5713.570312 11359.484375 C 5535.753906 13302.8125 5873.757812 15095.390625 6651.039062 16628.03125 L 6912.039062 17097.964844 C 7066.660156 17379.773438 7252.207031 17644.363281 7443.628906 17902.59375 C 7635.050781 18160.828125 7704.320312 18303.203125 7825.542969 18474.582031 C 9880 20788.585938 12943.050781 21905.261719 16479.242188 21905.261719 C 24310.507812 21905.261719 30956.90625 18425.261719 33898.890625 10607.589844 C 35984.734375 10822.238281 37987.082031 10285.613281 38899.347656 8499.394531 Z M 38899.347656 8499.394531 " clip-rule="evenodd"/></clipPath><clipPath id="246cd6d14d"><path d="M 5667 4430 L 7941 4430 L 7941 6993 L 5667 6993 Z M 5667 4430 " clip-rule="nonzero"/></clipPath><clipPath id="6c90b10d5c"><path d="M 38899.347656 8499.394531 C 37445.910156 7658.164062 35578.390625 7927.875 34502.378906 8470.390625 L 37353.601562 347.1875 L 26220.855469 7481.511719 L 22664.5625 7481.511719 L 22664.5625 347.1875 L 11995.21875 347.808594 L 11995.21875 7482.132812 L 8593.546875 7482.132812 L 8593.546875 11049.296875 L 5745.421875 11049.296875 L 5713.570312 11359.484375 C 5535.753906 13302.8125 5873.757812 15095.390625 6651.039062 16628.03125 L 6912.039062 17097.964844 C 7066.660156 17379.773438 7252.207031 17644.363281 7443.628906 17902.59375 C 7635.050781 18160.828125 7704.320312 18303.203125 7825.542969 18474.582031 C 9880 20788.585938 12943.050781 21905.261719 16479.242188 21905.261719 C 24310.507812 21905.261719 30956.90625 18425.261719 33898.890625 10607.589844 C 35984.734375 10822.238281 37987.082031 10285.613281 38899.347656 8499.394531 Z M 38899.347656 8499.394531 " clip-rule="evenodd"/></clipPath><clipPath id="2762f083a9"><path d="M 5667 4309 L 8062 4309 L 8062 7114 L 5667 7114 Z M 5667 4309 " clip-rule="nonzero"/></clipPath><clipPath id="21cf75b657"><path d="M 38899.347656 8499.394531 C 37445.910156 7658.164062 35578.390625 7927.875 34502.378906 8470.390625 L 37353.601562 347.1875 L 26220.855469 7481.511719 L 22664.5625 7481.511719 L 22664.5625 347.1875 L 11995.21875 347.808594 L 11995.21875 7482.132812 L 8593.546875 7482.132812 L 8593.546875 11049.296875 L 5745.421875 11049.296875 L 5713.570312 11359.484375 C 5535.753906 13302.8125 5873.757812 15095.390625 6651.039062 16628.03125 L 6912.039062 17097.964844 C 7066.660156 17379.773438 7252.207031 17644.363281 7443.628906 17902.59375 C 7635.050781 18160.828125 7704.320312 18303.203125 7825.542969 18474.582031 C 9880 20788.585938 12943.050781 21905.261719 16479.242188 21905.261719 C 24310.507812 21905.261719 30956.90625 18425.261719 33898.890625 10607.589844 C 35984.734375 10822.238281 37987.082031 10285.613281 38899.347656 8499.394531 Z M 38899.347656 8499.394531 " clip-rule="evenodd"/></clipPath><clipPath id="fabaebe0ec"><path d="M 5667 7977 L 7941 7977 L 7941 10539 L 5667 10539 Z M 5667 7977 " clip-rule="nonzero"/></clipPath><clipPath id="3801715bf7"><path d="M 38899.347656 8499.394531 C 37445.910156 7658.164062 35578.390625 7927.875 34502.378906 8470.390625 L 37353.601562 347.1875 L 26220.855469 7481.511719 L 22664.5625 7481.511719 L 22664.5625 347.1875 L 11995.21875 347.808594 L 11995.21875 7482.132812 L 8593.546875 7482.132812 L 8593.546875 11049.296875 L 5745.421875 11049.296875 L 5713.570312 11359.484375 C 5535.753906 13302.8125 5873.757812 15095.390625 6651.039062 16628.03125 L 6912.039062 17097.964844 C 7066.660156 17379.773438 7252.207031 17644.363281 7443.628906 17902.59375 C 7635.050781 18160.828125 7704.320312 18303.203125 7825.542969 18474.582031 C 9880 20788.585938 12943.050781 21905.261719 16479.242188 21905.261719 C 24310.507812 21905.261719 30956.90625 18425.261719 33898.890625 10607.589844 C 35984.734375 10822.238281 37987.082031 10285.613281 38899.347656 8499.394531 Z M 38899.347656 8499.394531 " clip-rule="evenodd"/></clipPath><clipPath id="214d44588c"><path d="M 5667 7856 L 8062 7856 L 8062 10660 L 5667 10660 Z M 5667 7856 " clip-rule="nonzero"/></clipPath><clipPath id="91851e592c"><path d="M 38899.347656 8499.394531 C 37445.910156 7658.164062 35578.390625 7927.875 34502.378906 8470.390625 L 37353.601562 347.1875 L 26220.855469 7481.511719 L 22664.5625 7481.511719 L 22664.5625 347.1875 L 11995.21875 347.808594 L 11995.21875 7482.132812 L 8593.546875 7482.132812 L 8593.546875 11049.296875 L 5745.421875 11049.296875 L 5713.570312 11359.484375 C 5535.753906 13302.8125 5873.757812 15095.390625 6651.039062 16628.03125 L 6912.039062 17097.964844 C 7066.660156 17379.773438 7252.207031 17644.363281 7443.628906 17902.59375 C 7635.050781 18160.828125 7704.320312 18303.203125 7825.542969 18474.582031 C 9880 20788.585938 12943.050781 21905.261719 16479.242188 21905.261719 C 24310.507812 21905.261719 30956.90625 18425.261719 33898.890625 10607.589844 C 35984.734375 10822.238281 37987.082031 10285.613281 38899.347656 8499.394531 Z M 38899.347656 8499.394531 " clip-rule="evenodd"/></clipPath><clipPath id="795351f0a6"><path d="M 8788 7723 L 11853 7723 L 11853 10797 L 8788 10797 Z M 8788 7723 " clip-rule="nonzero"/></clipPath><clipPath id="07e267149d"><path d="M 38899.347656 8499.394531 C 37445.910156 7658.164062 35578.390625 7927.875 34502.378906 8470.390625 L 37353.601562 347.1875 L 26220.855469 7481.511719 L 22664.5625 7481.511719 L 22664.5625 347.1875 L 11995.21875 347.808594 L 11995.21875 7482.132812 L 8593.546875 7482.132812 L 8593.546875 11049.296875 L 5745.421875 11049.296875 L 5713.570312 11359.484375 C 5535.753906 13302.8125 5873.757812 15095.390625 6651.039062 16628.03125 L 6912.039062 17097.964844 C 7066.660156 17379.773438 7252.207031 17644.363281 7443.628906 17902.59375 C 7635.050781 18160.828125 7704.320312 18303.203125 7825.542969 18474.582031 C 9880 20788.585938 12943.050781 21905.261719 16479.242188 21905.261719 C 24310.507812 21905.261719 30956.90625 18425.261719 33898.890625 10607.589844 C 35984.734375 10822.238281 37987.082031 10285.613281 38899.347656 8499.394531 Z M 38899.347656 8499.394531 " clip-rule="evenodd"/></clipPath><clipPath id="28de0be401"><path d="M 8788 4175 L 11853 4175 L 11853 7249 L 8788 7249 Z M 8788 4175 " clip-rule="nonzero"/></clipPath><clipPath id="ebf9266a13"><path d="M 38899.347656 8499.394531 C 37445.910156 7658.164062 35578.390625 7927.875 34502.378906 8470.390625 L 37353.601562 347.1875 L 26220.855469 7481.511719 L 22664.5625 7481.511719 L 22664.5625 347.1875 L 11995.21875 347.808594 L 11995.21875 7482.132812 L 8593.546875 7482.132812 L 8593.546875 11049.296875 L 5745.421875 11049.296875 L 5713.570312 11359.484375 C 5535.753906 13302.8125 5873.757812 15095.390625 6651.039062 16628.03125 L 6912.039062 17097.964844 C 7066.660156 17379.773438 7252.207031 17644.363281 7443.628906 17902.59375 C 7635.050781 18160.828125 7704.320312 18303.203125 7825.542969 18474.582031 C 9880 20788.585938 12943.050781 21905.261719 16479.242188 21905.261719 C 24310.507812 21905.261719 30956.90625 18425.261719 33898.890625 10607.589844 C 35984.734375 10822.238281 37987.082031 10285.613281 38899.347656 8499.394531 Z M 38899.347656 8499.394531 " clip-rule="evenodd"/></clipPath><clipPath id="81c30f6330"><path d="M 9164 7977 L 11477 7977 L 11477 10540 L 9164 10540 Z M 9164 7977 " clip-rule="nonzero"/></clipPath><clipPath id="7b280e8e93"><path d="M 38899.347656 8499.394531 C 37445.910156 7658.164062 35578.390625 7927.875 34502.378906 8470.390625 L 37353.601562 347.1875 L 26220.855469 7481.511719 L 22664.5625 7481.511719 L 22664.5625 347.1875 L 11995.21875 347.808594 L 11995.21875 7482.132812 L 8593.546875 7482.132812 L 8593.546875 11049.296875 L 5745.421875 11049.296875 L 5713.570312 11359.484375 C 5535.753906 13302.8125 5873.757812 15095.390625 6651.039062 16628.03125 L 6912.039062 17097.964844 C 7066.660156 17379.773438 7252.207031 17644.363281 7443.628906 17902.59375 C 7635.050781 18160.828125 7704.320312 18303.203125 7825.542969 18474.582031 C 9880 20788.585938 12943.050781 21905.261719 16479.242188 21905.261719 C 24310.507812 21905.261719 30956.90625 18425.261719 33898.890625 10607.589844 C 35984.734375 10822.238281 37987.082031 10285.613281 38899.347656 8499.394531 Z M 38899.347656 8499.394531 " clip-rule="evenodd"/></clipPath><clipPath id="05840da6e1"><path d="M 9043 7856 L 11597 7856 L 11597 10661 L 9043 10661 Z M 9043 7856 " clip-rule="nonzero"/></clipPath><clipPath id="112bd0b5da"><path d="M 38899.347656 8499.394531 C 37445.910156 7658.164062 35578.390625 7927.875 34502.378906 8470.390625 L 37353.601562 347.1875 L 26220.855469 7481.511719 L 22664.5625 7481.511719 L 22664.5625 347.1875 L 11995.21875 347.808594 L 11995.21875 7482.132812 L 8593.546875 7482.132812 L 8593.546875 11049.296875 L 5745.421875 11049.296875 L 5713.570312 11359.484375 C 5535.753906 13302.8125 5873.757812 15095.390625 6651.039062 16628.03125 L 6912.039062 17097.964844 C 7066.660156 17379.773438 7252.207031 17644.363281 7443.628906 17902.59375 C 7635.050781 18160.828125 7704.320312 18303.203125 7825.542969 18474.582031 C 9880 20788.585938 12943.050781 21905.261719 16479.242188 21905.261719 C 24310.507812 21905.261719 30956.90625 18425.261719 33898.890625 10607.589844 C 35984.734375 10822.238281 37987.082031 10285.613281 38899.347656 8499.394531 Z M 38899.347656 8499.394531 " clip-rule="evenodd"/></clipPath><clipPath id="de7c738684"><path d="M 9164 4431 L 11477 4431 L 11477 6993 L 9164 6993 Z M 9164 4431 " clip-rule="nonzero"/></clipPath><clipPath id="823d601eaf"><path d="M 38899.347656 8499.394531 C 37445.910156 7658.164062 35578.390625 7927.875 34502.378906 8470.390625 L 37353.601562 347.1875 L 26220.855469 7481.511719 L 22664.5625 7481.511719 L 22664.5625 347.1875 L 11995.21875 347.808594 L 11995.21875 7482.132812 L 8593.546875 7482.132812 L 8593.546875 11049.296875 L 5745.421875 11049.296875 L 5713.570312 11359.484375 C 5535.753906 13302.8125 5873.757812 15095.390625 6651.039062 16628.03125 L 6912.039062 17097.964844 C 7066.660156 17379.773438 7252.207031 17644.363281 7443.628906 17902.59375 C 7635.050781 18160.828125 7704.320312 18303.203125 7825.542969 18474.582031 C 9880 20788.585938 12943.050781 21905.261719 16479.242188 21905.261719 C 24310.507812 21905.261719 30956.90625 18425.261719 33898.890625 10607.589844 C 35984.734375 10822.238281 37987.082031 10285.613281 38899.347656 8499.394531 Z M 38899.347656 8499.394531 " clip-rule="evenodd"/></clipPath><clipPath id="b5cbcc7fca"><path d="M 9043 4310 L 11597 4310 L 11597 7114 L 9043 7114 Z M 9043 4310 " clip-rule="nonzero"/></clipPath><clipPath id="97c01a4d10"><path d="M 38899.347656 8499.394531 C 37445.910156 7658.164062 35578.390625 7927.875 34502.378906 8470.390625 L 37353.601562 347.1875 L 26220.855469 7481.511719 L 22664.5625 7481.511719 L 22664.5625 347.1875 L 11995.21875 347.808594 L 11995.21875 7482.132812 L 8593.546875 7482.132812 L 8593.546875 11049.296875 L 5745.421875 11049.296875 L 5713.570312 11359.484375 C 5535.753906 13302.8125 5873.757812 15095.390625 6651.039062 16628.03125 L 6912.039062 17097.964844 C 7066.660156 17379.773438 7252.207031 17644.363281 7443.628906 17902.59375 C 7635.050781 18160.828125 7704.320312 18303.203125 7825.542969 18474.582031 C 9880 20788.585938 12943.050781 21905.261719 16479.242188 21905.261719 C 24310.507812 21905.261719 30956.90625 18425.261719 33898.890625 10607.589844 C 35984.734375 10822.238281 37987.082031 10285.613281 38899.347656 8499.394531 Z M 38899.347656 8499.394531 " clip-rule="evenodd"/></clipPath><clipPath id="1329c17c0a"><path d="M 12323 4173 L 15389 4173 L 15389 7247 L 12323 7247 Z M 12323 4173 " clip-rule="nonzero"/></clipPath><clipPath id="b814d22342"><path d="M 38899.347656 8499.394531 C 37445.910156 7658.164062 35578.390625 7927.875 34502.378906 8470.390625 L 37353.601562 347.1875 L 26220.855469 7481.511719 L 22664.5625 7481.511719 L 22664.5625 347.1875 L 11995.21875 347.808594 L 11995.21875 7482.132812 L 8593.546875 7482.132812 L 8593.546875 11049.296875 L 5745.421875 11049.296875 L 5713.570312 11359.484375 C 5535.753906 13302.8125 5873.757812 15095.390625 6651.039062 16628.03125 L 6912.039062 17097.964844 C 7066.660156 17379.773438 7252.207031 17644.363281 7443.628906 17902.59375 C 7635.050781 18160.828125 7704.320312 18303.203125 7825.542969 18474.582031 C 9880 20788.585938 12943.050781 21905.261719 16479.242188 21905.261719 C 24310.507812 21905.261719 30956.90625 18425.261719 33898.890625 10607.589844 C 35984.734375 10822.238281 37987.082031 10285.613281 38899.347656 8499.394531 Z M 38899.347656 8499.394531 " clip-rule="evenodd"/></clipPath><clipPath id="5a186742a1"><path d="M 12323 7721 L 15389 7721 L 15389 10795 L 12323 10795 Z M 12323 7721 " clip-rule="nonzero"/></clipPath><clipPath id="9a458ab3b2"><path d="M 38899.347656 8499.394531 C 37445.910156 7658.164062 35578.390625 7927.875 34502.378906 8470.390625 L 37353.601562 347.1875 L 26220.855469 7481.511719 L 22664.5625 7481.511719 L 22664.5625 347.1875 L 11995.21875 347.808594 L 11995.21875 7482.132812 L 8593.546875 7482.132812 L 8593.546875 11049.296875 L 5745.421875 11049.296875 L 5713.570312 11359.484375 C 5535.753906 13302.8125 5873.757812 15095.390625 6651.039062 16628.03125 L 6912.039062 17097.964844 C 7066.660156 17379.773438 7252.207031 17644.363281 7443.628906 17902.59375 C 7635.050781 18160.828125 7704.320312 18303.203125 7825.542969 18474.582031 C 9880 20788.585938 12943.050781 21905.261719 16479.242188 21905.261719 C 24310.507812 21905.261719 30956.90625 18425.261719 33898.890625 10607.589844 C 35984.734375 10822.238281 37987.082031 10285.613281 38899.347656 8499.394531 Z M 38899.347656 8499.394531 " clip-rule="evenodd"/></clipPath><clipPath id="866b1151b3"><path d="M 12699 4430 L 15012 4430 L 15012 6993 L 12699 6993 Z M 12699 4430 " clip-rule="nonzero"/></clipPath><clipPath id="b1a98f7362"><path d="M 38899.347656 8499.394531 C 37445.910156 7658.164062 35578.390625 7927.875 34502.378906 8470.390625 L 37353.601562 347.1875 L 26220.855469 7481.511719 L 22664.5625 7481.511719 L 22664.5625 347.1875 L 11995.21875 347.808594 L 11995.21875 7482.132812 L 8593.546875 7482.132812 L 8593.546875 11049.296875 L 5745.421875 11049.296875 L 5713.570312 11359.484375 C 5535.753906 13302.8125 5873.757812 15095.390625 6651.039062 16628.03125 L 6912.039062 17097.964844 C 7066.660156 17379.773438 7252.207031 17644.363281 7443.628906 17902.59375 C 7635.050781 18160.828125 7704.320312 18303.203125 7825.542969 18474.582031 C 9880 20788.585938 12943.050781 21905.261719 16479.242188 21905.261719 C 24310.507812 21905.261719 30956.90625 18425.261719 33898.890625 10607.589844 C 35984.734375 10822.238281 37987.082031 10285.613281 38899.347656 8499.394531 Z M 38899.347656 8499.394531 " clip-rule="evenodd"/></clipPath><clipPath id="5282fa9577"><path d="M 12579 4309 L 15133 4309 L 15133 7114 L 12579 7114 Z M 12579 4309 " clip-rule="nonzero"/></clipPath><clipPath id="7211630c18"><path d="M 38899.347656 8499.394531 C 37445.910156 7658.164062 35578.390625 7927.875 34502.378906 8470.390625 L 37353.601562 347.1875 L 26220.855469 7481.511719 L 22664.5625 7481.511719 L 22664.5625 347.1875 L 11995.21875 347.808594 L 11995.21875 7482.132812 L 8593.546875 7482.132812 L 8593.546875 11049.296875 L 5745.421875 11049.296875 L 5713.570312 11359.484375 C 5535.753906 13302.8125 5873.757812 15095.390625 6651.039062 16628.03125 L 6912.039062 17097.964844 C 7066.660156 17379.773438 7252.207031 17644.363281 7443.628906 17902.59375 C 7635.050781 18160.828125 7704.320312 18303.203125 7825.542969 18474.582031 C 9880 20788.585938 12943.050781 21905.261719 16479.242188 21905.261719 C 24310.507812 21905.261719 30956.90625 18425.261719 33898.890625 10607.589844 C 35984.734375 10822.238281 37987.082031 10285.613281 38899.347656 8499.394531 Z M 38899.347656 8499.394531 " clip-rule="evenodd"/></clipPath><clipPath id="71e1495ed9"><path d="M 12699 7977 L 15012 7977 L 15012 10539 L 12699 10539 Z M 12699 7977 " clip-rule="nonzero"/></clipPath><clipPath id="48ebe5f6ab"><path d="M 38899.347656 8499.394531 C 37445.910156 7658.164062 35578.390625 7927.875 34502.378906 8470.390625 L 37353.601562 347.1875 L 26220.855469 7481.511719 L 22664.5625 7481.511719 L 22664.5625 347.1875 L 11995.21875 347.808594 L 11995.21875 7482.132812 L 8593.546875 7482.132812 L 8593.546875 11049.296875 L 5745.421875 11049.296875 L 5713.570312 11359.484375 C 5535.753906 13302.8125 5873.757812 15095.390625 6651.039062 16628.03125 L 6912.039062 17097.964844 C 7066.660156 17379.773438 7252.207031 17644.363281 7443.628906 17902.59375 C 7635.050781 18160.828125 7704.320312 18303.203125 7825.542969 18474.582031 C 9880 20788.585938 12943.050781 21905.261719 16479.242188 21905.261719 C 24310.507812 21905.261719 30956.90625 18425.261719 33898.890625 10607.589844 C 35984.734375 10822.238281 37987.082031 10285.613281 38899.347656 8499.394531 Z M 38899.347656 8499.394531 " clip-rule="evenodd"/></clipPath><clipPath id="7f2574b1cd"><path d="M 12579 7856 L 15133 7856 L 15133 10660 L 12579 10660 Z M 12579 7856 " clip-rule="nonzero"/></clipPath><clipPath id="64d9f8b043"><path d="M 38899.347656 8499.394531 C 37445.910156 7658.164062 35578.390625 7927.875 34502.378906 8470.390625 L 37353.601562 347.1875 L 26220.855469 7481.511719 L 22664.5625 7481.511719 L 22664.5625 347.1875 L 11995.21875 347.808594 L 11995.21875 7482.132812 L 8593.546875 7482.132812 L 8593.546875 11049.296875 L 5745.421875 11049.296875 L 5713.570312 11359.484375 C 5535.753906 13302.8125 5873.757812 15095.390625 6651.039062 16628.03125 L 6912.039062 17097.964844 C 7066.660156 17379.773438 7252.207031 17644.363281 7443.628906 17902.59375 C 7635.050781 18160.828125 7704.320312 18303.203125 7825.542969 18474.582031 C 9880 20788.585938 12943.050781 21905.261719 16479.242188 21905.261719 C 24310.507812 21905.261719 30956.90625 18425.261719 33898.890625 10607.589844 C 35984.734375 10822.238281 37987.082031 10285.613281 38899.347656 8499.394531 Z M 38899.347656 8499.394531 " clip-rule="evenodd"/></clipPath><clipPath id="a3989ad036"><path d="M 15859 7723 L 18925 7723 L 18925 10797 L 15859 10797 Z M 15859 7723 " clip-rule="nonzero"/></clipPath><clipPath id="f5fc77a299"><path d="M 38899.347656 8499.394531 C 37445.910156 7658.164062 35578.390625 7927.875 34502.378906 8470.390625 L 37353.601562 347.1875 L 26220.855469 7481.511719 L 22664.5625 7481.511719 L 22664.5625 347.1875 L 11995.21875 347.808594 L 11995.21875 7482.132812 L 8593.546875 7482.132812 L 8593.546875 11049.296875 L 5745.421875 11049.296875 L 5713.570312 11359.484375 C 5535.753906 13302.8125 5873.757812 15095.390625 6651.039062 16628.03125 L 6912.039062 17097.964844 C 7066.660156 17379.773438 7252.207031 17644.363281 7443.628906 17902.59375 C 7635.050781 18160.828125 7704.320312 18303.203125 7825.542969 18474.582031 C 9880 20788.585938 12943.050781 21905.261719 16479.242188 21905.261719 C 24310.507812 21905.261719 30956.90625 18425.261719 33898.890625 10607.589844 C 35984.734375 10822.238281 37987.082031 10285.613281 38899.347656 8499.394531 Z M 38899.347656 8499.394531 " clip-rule="evenodd"/></clipPath><clipPath id="7a43dd9e4f"><path d="M 15859 4175 L 18925 4175 L 18925 7249 L 15859 7249 Z M 15859 4175 " clip-rule="nonzero"/></clipPath><clipPath id="83ee075998"><path d="M 38899.347656 8499.394531 C 37445.910156 7658.164062 35578.390625 7927.875 34502.378906 8470.390625 L 37353.601562 347.1875 L 26220.855469 7481.511719 L 22664.5625 7481.511719 L 22664.5625 347.1875 L 11995.21875 347.808594 L 11995.21875 7482.132812 L 8593.546875 7482.132812 L 8593.546875 11049.296875 L 5745.421875 11049.296875 L 5713.570312 11359.484375 C 5535.753906 13302.8125 5873.757812 15095.390625 6651.039062 16628.03125 L 6912.039062 17097.964844 C 7066.660156 17379.773438 7252.207031 17644.363281 7443.628906 17902.59375 C 7635.050781 18160.828125 7704.320312 18303.203125 7825.542969 18474.582031 C 9880 20788.585938 12943.050781 21905.261719 16479.242188 21905.261719 C 24310.507812 21905.261719 30956.90625 18425.261719 33898.890625 10607.589844 C 35984.734375 10822.238281 37987.082031 10285.613281 38899.347656 8499.394531 Z M 38899.347656 8499.394531 " clip-rule="evenodd"/></clipPath><clipPath id="dc299e7c13"><path d="M 16235 7977 L 18548 7977 L 18548 10540 L 16235 10540 Z M 16235 7977 " clip-rule="nonzero"/></clipPath><clipPath id="cbbff9c81b"><path d="M 38899.347656 8499.394531 C 37445.910156 7658.164062 35578.390625 7927.875 34502.378906 8470.390625 L 37353.601562 347.1875 L 26220.855469 7481.511719 L 22664.5625 7481.511719 L 22664.5625 347.1875 L 11995.21875 347.808594 L 11995.21875 7482.132812 L 8593.546875 7482.132812 L 8593.546875 11049.296875 L 5745.421875 11049.296875 L 5713.570312 11359.484375 C 5535.753906 13302.8125 5873.757812 15095.390625 6651.039062 16628.03125 L 6912.039062 17097.964844 C 7066.660156 17379.773438 7252.207031 17644.363281 7443.628906 17902.59375 C 7635.050781 18160.828125 7704.320312 18303.203125 7825.542969 18474.582031 C 9880 20788.585938 12943.050781 21905.261719 16479.242188 21905.261719 C 24310.507812 21905.261719 30956.90625 18425.261719 33898.890625 10607.589844 C 35984.734375 10822.238281 37987.082031 10285.613281 38899.347656 8499.394531 Z M 38899.347656 8499.394531 " clip-rule="evenodd"/></clipPath><clipPath id="0ea0158736"><path d="M 16114 7856 L 18668 7856 L 18668 10661 L 16114 10661 Z M 16114 7856 " clip-rule="nonzero"/></clipPath><clipPath id="3748301809"><path d="M 38899.347656 8499.394531 C 37445.910156 7658.164062 35578.390625 7927.875 34502.378906 8470.390625 L 37353.601562 347.1875 L 26220.855469 7481.511719 L 22664.5625 7481.511719 L 22664.5625 347.1875 L 11995.21875 347.808594 L 11995.21875 7482.132812 L 8593.546875 7482.132812 L 8593.546875 11049.296875 L 5745.421875 11049.296875 L 5713.570312 11359.484375 C 5535.753906 13302.8125 5873.757812 15095.390625 6651.039062 16628.03125 L 6912.039062 17097.964844 C 7066.660156 17379.773438 7252.207031 17644.363281 7443.628906 17902.59375 C 7635.050781 18160.828125 7704.320312 18303.203125 7825.542969 18474.582031 C 9880 20788.585938 12943.050781 21905.261719 16479.242188 21905.261719 C 24310.507812 21905.261719 30956.90625 18425.261719 33898.890625 10607.589844 C 35984.734375 10822.238281 37987.082031 10285.613281 38899.347656 8499.394531 Z M 38899.347656 8499.394531 " clip-rule="evenodd"/></clipPath><clipPath id="33ddf5d036"><path d="M 16235 4431 L 18548 4431 L 18548 6993 L 16235 6993 Z M 16235 4431 " clip-rule="nonzero"/></clipPath><clipPath id="2a74d92aa7"><path d="M 38899.347656 8499.394531 C 37445.910156 7658.164062 35578.390625 7927.875 34502.378906 8470.390625 L 37353.601562 347.1875 L 26220.855469 7481.511719 L 22664.5625 7481.511719 L 22664.5625 347.1875 L 11995.21875 347.808594 L 11995.21875 7482.132812 L 8593.546875 7482.132812 L 8593.546875 11049.296875 L 5745.421875 11049.296875 L 5713.570312 11359.484375 C 5535.753906 13302.8125 5873.757812 15095.390625 6651.039062 16628.03125 L 6912.039062 17097.964844 C 7066.660156 17379.773438 7252.207031 17644.363281 7443.628906 17902.59375 C 7635.050781 18160.828125 7704.320312 18303.203125 7825.542969 18474.582031 C 9880 20788.585938 12943.050781 21905.261719 16479.242188 21905.261719 C 24310.507812 21905.261719 30956.90625 18425.261719 33898.890625 10607.589844 C 35984.734375 10822.238281 37987.082031 10285.613281 38899.347656 8499.394531 Z M 38899.347656 8499.394531 " clip-rule="evenodd"/></clipPath><clipPath id="b7f73d81c7"><path d="M 16114 4310 L 18668 4310 L 18668 7114 L 16114 7114 Z M 16114 4310 " clip-rule="nonzero"/></clipPath><clipPath id="5fc1c06684"><path d="M 38899.347656 8499.394531 C 37445.910156 7658.164062 35578.390625 7927.875 34502.378906 8470.390625 L 37353.601562 347.1875 L 26220.855469 7481.511719 L 22664.5625 7481.511719 L 22664.5625 347.1875 L 11995.21875 347.808594 L 11995.21875 7482.132812 L 8593.546875 7482.132812 L 8593.546875 11049.296875 L 5745.421875 11049.296875 L 5713.570312 11359.484375 C 5535.753906 13302.8125 5873.757812 15095.390625 6651.039062 16628.03125 L 6912.039062 17097.964844 C 7066.660156 17379.773438 7252.207031 17644.363281 7443.628906 17902.59375 C 7635.050781 18160.828125 7704.320312 18303.203125 7825.542969 18474.582031 C 9880 20788.585938 12943.050781 21905.261719 16479.242188 21905.261719 C 24310.507812 21905.261719 30956.90625 18425.261719 33898.890625 10607.589844 C 35984.734375 10822.238281 37987.082031 10285.613281 38899.347656 8499.394531 Z M 38899.347656 8499.394531 " clip-rule="evenodd"/></clipPath><clipPath id="57435ae6da"><path d="M 19395 4173 L 22460 4173 L 22460 7247 L 19395 7247 Z M 19395 4173 " clip-rule="nonzero"/></clipPath><clipPath id="54e6ce7da1"><path d="M 38899.347656 8499.394531 C 37445.910156 7658.164062 35578.390625 7927.875 34502.378906 8470.390625 L 37353.601562 347.1875 L 26220.855469 7481.511719 L 22664.5625 7481.511719 L 22664.5625 347.1875 L 11995.21875 347.808594 L 11995.21875 7482.132812 L 8593.546875 7482.132812 L 8593.546875 11049.296875 L 5745.421875 11049.296875 L 5713.570312 11359.484375 C 5535.753906 13302.8125 5873.757812 15095.390625 6651.039062 16628.03125 L 6912.039062 17097.964844 C 7066.660156 17379.773438 7252.207031 17644.363281 7443.628906 17902.59375 C 7635.050781 18160.828125 7704.320312 18303.203125 7825.542969 18474.582031 C 9880 20788.585938 12943.050781 21905.261719 16479.242188 21905.261719 C 24310.507812 21905.261719 30956.90625 18425.261719 33898.890625 10607.589844 C 35984.734375 10822.238281 37987.082031 10285.613281 38899.347656 8499.394531 Z M 38899.347656 8499.394531 " clip-rule="evenodd"/></clipPath><clipPath id="92fe69f3e3"><path d="M 19395 7721 L 22460 7721 L 22460 10795 L 19395 10795 Z M 19395 7721 " clip-rule="nonzero"/></clipPath><clipPath id="22279d5315"><path d="M 38899.347656 8499.394531 C 37445.910156 7658.164062 35578.390625 7927.875 34502.378906 8470.390625 L 37353.601562 347.1875 L 26220.855469 7481.511719 L 22664.5625 7481.511719 L 22664.5625 347.1875 L 11995.21875 347.808594 L 11995.21875 7482.132812 L 8593.546875 7482.132812 L 8593.546875 11049.296875 L 5745.421875 11049.296875 L 5713.570312 11359.484375 C 5535.753906 13302.8125 5873.757812 15095.390625 6651.039062 16628.03125 L 6912.039062 17097.964844 C 7066.660156 17379.773438 7252.207031 17644.363281 7443.628906 17902.59375 C 7635.050781 18160.828125 7704.320312 18303.203125 7825.542969 18474.582031 C 9880 20788.585938 12943.050781 21905.261719 16479.242188 21905.261719 C 24310.507812 21905.261719 30956.90625 18425.261719 33898.890625 10607.589844 C 35984.734375 10822.238281 37987.082031 10285.613281 38899.347656 8499.394531 Z M 38899.347656 8499.394531 " clip-rule="evenodd"/></clipPath><clipPath id="1089d19132"><path d="M 19771 4430 L 22083 4430 L 22083 6993 L 19771 6993 Z M 19771 4430 " clip-rule="nonzero"/></clipPath><clipPath id="b63e93e05b"><path d="M 38899.347656 8499.394531 C 37445.910156 7658.164062 35578.390625 7927.875 34502.378906 8470.390625 L 37353.601562 347.1875 L 26220.855469 7481.511719 L 22664.5625 7481.511719 L 22664.5625 347.1875 L 11995.21875 347.808594 L 11995.21875 7482.132812 L 8593.546875 7482.132812 L 8593.546875 11049.296875 L 5745.421875 11049.296875 L 5713.570312 11359.484375 C 5535.753906 13302.8125 5873.757812 15095.390625 6651.039062 16628.03125 L 6912.039062 17097.964844 C 7066.660156 17379.773438 7252.207031 17644.363281 7443.628906 17902.59375 C 7635.050781 18160.828125 7704.320312 18303.203125 7825.542969 18474.582031 C 9880 20788.585938 12943.050781 21905.261719 16479.242188 21905.261719 C 24310.507812 21905.261719 30956.90625 18425.261719 33898.890625 10607.589844 C 35984.734375 10822.238281 37987.082031 10285.613281 38899.347656 8499.394531 Z M 38899.347656 8499.394531 " clip-rule="evenodd"/></clipPath><clipPath id="36f7c27152"><path d="M 19650 4309 L 22204 4309 L 22204 7114 L 19650 7114 Z M 19650 4309 " clip-rule="nonzero"/></clipPath><clipPath id="cb6c104089"><path d="M 38899.347656 8499.394531 C 37445.910156 7658.164062 35578.390625 7927.875 34502.378906 8470.390625 L 37353.601562 347.1875 L 26220.855469 7481.511719 L 22664.5625 7481.511719 L 22664.5625 347.1875 L 11995.21875 347.808594 L 11995.21875 7482.132812 L 8593.546875 7482.132812 L 8593.546875 11049.296875 L 5745.421875 11049.296875 L 5713.570312 11359.484375 C 5535.753906 13302.8125 5873.757812 15095.390625 6651.039062 16628.03125 L 6912.039062 17097.964844 C 7066.660156 17379.773438 7252.207031 17644.363281 7443.628906 17902.59375 C 7635.050781 18160.828125 7704.320312 18303.203125 7825.542969 18474.582031 C 9880 20788.585938 12943.050781 21905.261719 16479.242188 21905.261719 C 24310.507812 21905.261719 30956.90625 18425.261719 33898.890625 10607.589844 C 35984.734375 10822.238281 37987.082031 10285.613281 38899.347656 8499.394531 Z M 38899.347656 8499.394531 " clip-rule="evenodd"/></clipPath><clipPath id="6785b806b0"><path d="M 19771 7977 L 22083 7977 L 22083 10539 L 19771 10539 Z M 19771 7977 " clip-rule="nonzero"/></clipPath><clipPath id="cb8bea815b"><path d="M 38899.347656 8499.394531 C 37445.910156 7658.164062 35578.390625 7927.875 34502.378906 8470.390625 L 37353.601562 347.1875 L 26220.855469 7481.511719 L 22664.5625 7481.511719 L 22664.5625 347.1875 L 11995.21875 347.808594 L 11995.21875 7482.132812 L 8593.546875 7482.132812 L 8593.546875 11049.296875 L 5745.421875 11049.296875 L 5713.570312 11359.484375 C 5535.753906 13302.8125 5873.757812 15095.390625 6651.039062 16628.03125 L 6912.039062 17097.964844 C 7066.660156 17379.773438 7252.207031 17644.363281 7443.628906 17902.59375 C 7635.050781 18160.828125 7704.320312 18303.203125 7825.542969 18474.582031 C 9880 20788.585938 12943.050781 21905.261719 16479.242188 21905.261719 C 24310.507812 21905.261719 30956.90625 18425.261719 33898.890625 10607.589844 C 35984.734375 10822.238281 37987.082031 10285.613281 38899.347656 8499.394531 Z M 38899.347656 8499.394531 " clip-rule="evenodd"/></clipPath><clipPath id="6d1340b8b1"><path d="M 19650 7856 L 22204 7856 L 22204 10660 L 19650 10660 Z M 19650 7856 " clip-rule="nonzero"/></clipPath><clipPath id="3d9cd8067f"><path d="M 38899.347656 8499.394531 C 37445.910156 7658.164062 35578.390625 7927.875 34502.378906 8470.390625 L 37353.601562 347.1875 L 26220.855469 7481.511719 L 22664.5625 7481.511719 L 22664.5625 347.1875 L 11995.21875 347.808594 L 11995.21875 7482.132812 L 8593.546875 7482.132812 L 8593.546875 11049.296875 L 5745.421875 11049.296875 L 5713.570312 11359.484375 C 5535.753906 13302.8125 5873.757812 15095.390625 6651.039062 16628.03125 L 6912.039062 17097.964844 C 7066.660156 17379.773438 7252.207031 17644.363281 7443.628906 17902.59375 C 7635.050781 18160.828125 7704.320312 18303.203125 7825.542969 18474.582031 C 9880 20788.585938 12943.050781 21905.261719 16479.242188 21905.261719 C 24310.507812 21905.261719 30956.90625 18425.261719 33898.890625 10607.589844 C 35984.734375 10822.238281 37987.082031 10285.613281 38899.347656 8499.394531 Z M 38899.347656 8499.394531 " clip-rule="evenodd"/></clipPath><clipPath id="a9af54c5b8"><path d="M 22930 7723 L 25996 7723 L 25996 10797 L 22930 10797 Z M 22930 7723 " clip-rule="nonzero"/></clipPath><clipPath id="d0bf9050a9"><path d="M 38899.347656 8499.394531 C 37445.910156 7658.164062 35578.390625 7927.875 34502.378906 8470.390625 L 37353.601562 347.1875 L 26220.855469 7481.511719 L 22664.5625 7481.511719 L 22664.5625 347.1875 L 11995.21875 347.808594 L 11995.21875 7482.132812 L 8593.546875 7482.132812 L 8593.546875 11049.296875 L 5745.421875 11049.296875 L 5713.570312 11359.484375 C 5535.753906 13302.8125 5873.757812 15095.390625 6651.039062 16628.03125 L 6912.039062 17097.964844 C 7066.660156 17379.773438 7252.207031 17644.363281 7443.628906 17902.59375 C 7635.050781 18160.828125 7704.320312 18303.203125 7825.542969 18474.582031 C 9880 20788.585938 12943.050781 21905.261719 16479.242188 21905.261719 C 24310.507812 21905.261719 30956.90625 18425.261719 33898.890625 10607.589844 C 35984.734375 10822.238281 37987.082031 10285.613281 38899.347656 8499.394531 Z M 38899.347656 8499.394531 " clip-rule="evenodd"/></clipPath><clipPath id="541dba962c"><path d="M 22930 4175 L 25996 4175 L 25996 7249 L 22930 7249 Z M 22930 4175 " clip-rule="nonzero"/></clipPath><clipPath id="552421558f"><path d="M 38899.347656 8499.394531 C 37445.910156 7658.164062 35578.390625 7927.875 34502.378906 8470.390625 L 37353.601562 347.1875 L 26220.855469 7481.511719 L 22664.5625 7481.511719 L 22664.5625 347.1875 L 11995.21875 347.808594 L 11995.21875 7482.132812 L 8593.546875 7482.132812 L 8593.546875 11049.296875 L 5745.421875 11049.296875 L 5713.570312 11359.484375 C 5535.753906 13302.8125 5873.757812 15095.390625 6651.039062 16628.03125 L 6912.039062 17097.964844 C 7066.660156 17379.773438 7252.207031 17644.363281 7443.628906 17902.59375 C 7635.050781 18160.828125 7704.320312 18303.203125 7825.542969 18474.582031 C 9880 20788.585938 12943.050781 21905.261719 16479.242188 21905.261719 C 24310.507812 21905.261719 30956.90625 18425.261719 33898.890625 10607.589844 C 35984.734375 10822.238281 37987.082031 10285.613281 38899.347656 8499.394531 Z M 38899.347656 8499.394531 " clip-rule="evenodd"/></clipPath><clipPath id="d334e26ca2"><path d="M 23306 7977 L 25619 7977 L 25619 10540 L 23306 10540 Z M 23306 7977 " clip-rule="nonzero"/></clipPath><clipPath id="aa1b6dc399"><path d="M 38899.347656 8499.394531 C 37445.910156 7658.164062 35578.390625 7927.875 34502.378906 8470.390625 L 37353.601562 347.1875 L 26220.855469 7481.511719 L 22664.5625 7481.511719 L 22664.5625 347.1875 L 11995.21875 347.808594 L 11995.21875 7482.132812 L 8593.546875 7482.132812 L 8593.546875 11049.296875 L 5745.421875 11049.296875 L 5713.570312 11359.484375 C 5535.753906 13302.8125 5873.757812 15095.390625 6651.039062 16628.03125 L 6912.039062 17097.964844 C 7066.660156 17379.773438 7252.207031 17644.363281 7443.628906 17902.59375 C 7635.050781 18160.828125 7704.320312 18303.203125 7825.542969 18474.582031 C 9880 20788.585938 12943.050781 21905.261719 16479.242188 21905.261719 C 24310.507812 21905.261719 30956.90625 18425.261719 33898.890625 10607.589844 C 35984.734375 10822.238281 37987.082031 10285.613281 38899.347656 8499.394531 Z M 38899.347656 8499.394531 " clip-rule="evenodd"/></clipPath><clipPath id="8af254d5ee"><path d="M 23186 7856 L 25739 7856 L 25739 10661 L 23186 10661 Z M 23186 7856 " clip-rule="nonzero"/></clipPath><clipPath id="29c95a862e"><path d="M 38899.347656 8499.394531 C 37445.910156 7658.164062 35578.390625 7927.875 34502.378906 8470.390625 L 37353.601562 347.1875 L 26220.855469 7481.511719 L 22664.5625 7481.511719 L 22664.5625 347.1875 L 11995.21875 347.808594 L 11995.21875 7482.132812 L 8593.546875 7482.132812 L 8593.546875 11049.296875 L 5745.421875 11049.296875 L 5713.570312 11359.484375 C 5535.753906 13302.8125 5873.757812 15095.390625 6651.039062 16628.03125 L 6912.039062 17097.964844 C 7066.660156 17379.773438 7252.207031 17644.363281 7443.628906 17902.59375 C 7635.050781 18160.828125 7704.320312 18303.203125 7825.542969 18474.582031 C 9880 20788.585938 12943.050781 21905.261719 16479.242188 21905.261719 C 24310.507812 21905.261719 30956.90625 18425.261719 33898.890625 10607.589844 C 35984.734375 10822.238281 37987.082031 10285.613281 38899.347656 8499.394531 Z M 38899.347656 8499.394531 " clip-rule="evenodd"/></clipPath><clipPath id="44829f97f0"><path d="M 23306 4431 L 25619 4431 L 25619 6993 L 23306 6993 Z M 23306 4431 " clip-rule="nonzero"/></clipPath><clipPath id="a815defdc2"><path d="M 38899.347656 8499.394531 C 37445.910156 7658.164062 35578.390625 7927.875 34502.378906 8470.390625 L 37353.601562 347.1875 L 26220.855469 7481.511719 L 22664.5625 7481.511719 L 22664.5625 347.1875 L 11995.21875 347.808594 L 11995.21875 7482.132812 L 8593.546875 7482.132812 L 8593.546875 11049.296875 L 5745.421875 11049.296875 L 5713.570312 11359.484375 C 5535.753906 13302.8125 5873.757812 15095.390625 6651.039062 16628.03125 L 6912.039062 17097.964844 C 7066.660156 17379.773438 7252.207031 17644.363281 7443.628906 17902.59375 C 7635.050781 18160.828125 7704.320312 18303.203125 7825.542969 18474.582031 C 9880 20788.585938 12943.050781 21905.261719 16479.242188 21905.261719 C 24310.507812 21905.261719 30956.90625 18425.261719 33898.890625 10607.589844 C 35984.734375 10822.238281 37987.082031 10285.613281 38899.347656 8499.394531 Z M 38899.347656 8499.394531 " clip-rule="evenodd"/></clipPath><clipPath id="ec3062d18b"><path d="M 23186 4310 L 25739 4310 L 25739 7114 L 23186 7114 Z M 23186 4310 " clip-rule="nonzero"/></clipPath><clipPath id="3f07a3be8f"><path d="M 38899.347656 8499.394531 C 37445.910156 7658.164062 35578.390625 7927.875 34502.378906 8470.390625 L 37353.601562 347.1875 L 26220.855469 7481.511719 L 22664.5625 7481.511719 L 22664.5625 347.1875 L 11995.21875 347.808594 L 11995.21875 7482.132812 L 8593.546875 7482.132812 L 8593.546875 11049.296875 L 5745.421875 11049.296875 L 5713.570312 11359.484375 C 5535.753906 13302.8125 5873.757812 15095.390625 6651.039062 16628.03125 L 6912.039062 17097.964844 C 7066.660156 17379.773438 7252.207031 17644.363281 7443.628906 17902.59375 C 7635.050781 18160.828125 7704.320312 18303.203125 7825.542969 18474.582031 C 9880 20788.585938 12943.050781 21905.261719 16479.242188 21905.261719 C 24310.507812 21905.261719 30956.90625 18425.261719 33898.890625 10607.589844 C 35984.734375 10822.238281 37987.082031 10285.613281 38899.347656 8499.394531 Z M 38899.347656 8499.394531 " clip-rule="evenodd"/></clipPath><clipPath id="5c8c67d63a"><path d="M 5667 4482 L 38899.347656 4482 L 38899.347656 21905.882812 L 5667 21905.882812 Z M 5667 4482 " clip-rule="nonzero"/></clipPath><clipPath id="2c704014e4"><path d="M 38899.347656 8499.394531 C 37445.910156 7658.164062 35578.390625 7927.875 34502.378906 8470.390625 L 37353.601562 347.1875 L 26220.855469 7481.511719 L 22664.5625 7481.511719 L 22664.5625 347.1875 L 11995.21875 347.808594 L 11995.21875 7482.132812 L 8593.546875 7482.132812 L 8593.546875 11049.296875 L 5745.421875 11049.296875 L 5713.570312 11359.484375 C 5535.753906 13302.8125 5873.757812 15095.390625 6651.039062 16628.03125 L 6912.039062 17097.964844 C 7066.660156 17379.773438 7252.207031 17644.363281 7443.628906 17902.59375 C 7635.050781 18160.828125 7704.320312 18303.203125 7825.542969 18474.582031 C 9880 20788.585938 12943.050781 21905.261719 16479.242188 21905.261719 C 24310.507812 21905.261719 30956.90625 18425.261719 33898.890625 10607.589844 C 35984.734375 10822.238281 37987.082031 10285.613281 38899.347656 8499.394531 Z M 38899.347656 8499.394531 " clip-rule="evenodd"/></clipPath><clipPath id="f0a5213df0"><path d="M 5667 13840 L 38899.347656 13840 L 38899.347656 21905.882812 L 5667 21905.882812 Z M 5667 13840 " clip-rule="nonzero"/></clipPath><clipPath id="5ea97bb087"><path d="M 38899.347656 8499.394531 C 37445.910156 7658.164062 35578.390625 7927.875 34502.378906 8470.390625 L 37353.601562 347.1875 L 26220.855469 7481.511719 L 22664.5625 7481.511719 L 22664.5625 347.1875 L 11995.21875 347.808594 L 11995.21875 7482.132812 L 8593.546875 7482.132812 L 8593.546875 11049.296875 L 5745.421875 11049.296875 L 5713.570312 11359.484375 C 5535.753906 13302.8125 5873.757812 15095.390625 6651.039062 16628.03125 L 6912.039062 17097.964844 C 7066.660156 17379.773438 7252.207031 17644.363281 7443.628906 17902.59375 C 7635.050781 18160.828125 7704.320312 18303.203125 7825.542969 18474.582031 C 9880 20788.585938 12943.050781 21905.261719 16479.242188 21905.261719 C 24310.507812 21905.261719 30956.90625 18425.261719 33898.890625 10607.589844 C 35984.734375 10822.238281 37987.082031 10285.613281 38899.347656 8499.394531 Z M 38899.347656 8499.394531 " clip-rule="evenodd"/></clipPath><clipPath id="23300c3529"><path d="M 7201 18060 L 17445 18060 L 17445 21905.882812 L 7201 21905.882812 Z M 7201 18060 " clip-rule="nonzero"/></clipPath><clipPath id="424fb2dce2"><path d="M 38899.347656 8499.394531 C 37445.910156 7658.164062 35578.390625 7927.875 34502.378906 8470.390625 L 37353.601562 347.1875 L 26220.855469 7481.511719 L 22664.5625 7481.511719 L 22664.5625 347.1875 L 11995.21875 347.808594 L 11995.21875 7482.132812 L 8593.546875 7482.132812 L 8593.546875 11049.296875 L 5745.421875 11049.296875 L 5713.570312 11359.484375 C 5535.753906 13302.8125 5873.757812 15095.390625 6651.039062 16628.03125 L 6912.039062 17097.964844 C 7066.660156 17379.773438 7252.207031 17644.363281 7443.628906 17902.59375 C 7635.050781 18160.828125 7704.320312 18303.203125 7825.542969 18474.582031 C 9880 20788.585938 12943.050781 21905.261719 16479.242188 21905.261719 C 24310.507812 21905.261719 30956.90625 18425.261719 33898.890625 10607.589844 C 35984.734375 10822.238281 37987.082031 10285.613281 38899.347656 8499.394531 Z M 38899.347656 8499.394531 " clip-rule="evenodd"/></clipPath><clipPath id="d807d5dfbd"><path d="M 5667 7792 L 38899.347656 7792 L 38899.347656 21905.882812 L 5667 21905.882812 Z M 5667 7792 " clip-rule="nonzero"/></clipPath><clipPath id="ae8476b2d7"><path d="M 38899.347656 8499.394531 C 37445.910156 7658.164062 35578.390625 7927.875 34502.378906 8470.390625 L 37353.601562 347.1875 L 26220.855469 7481.511719 L 22664.5625 7481.511719 L 22664.5625 347.1875 L 11995.21875 347.808594 L 11995.21875 7482.132812 L 8593.546875 7482.132812 L 8593.546875 11049.296875 L 5745.421875 11049.296875 L 5713.570312 11359.484375 C 5535.753906 13302.8125 5873.757812 15095.390625 6651.039062 16628.03125 L 6912.039062 17097.964844 C 7066.660156 17379.773438 7252.207031 17644.363281 7443.628906 17902.59375 C 7635.050781 18160.828125 7704.320312 18303.203125 7825.542969 18474.582031 C 9880 20788.585938 12943.050781 21905.261719 16479.242188 21905.261719 C 24310.507812 21905.261719 30956.90625 18425.261719 33898.890625 10607.589844 C 35984.734375 10822.238281 37987.082031 10285.613281 38899.347656 8499.394531 Z M 38899.347656 8499.394531 " clip-rule="evenodd"/></clipPath><clipPath id="233aeb6d23"><path d="M 15152 4356.804688 L 32447.398438 4356.804688 L 32447.398438 21653.414062 L 15152 21653.414062 Z M 15152 4356.804688 " clip-rule="nonzero"/></clipPath><clipPath id="70680b55d9"><path d="M 23801.632812 21654.429688 L 22708.144531 17489.320312 C 22272.683594 15830.289062 20976.960938 14534.058594 19317.421875 14098.59375 L 15152.3125 13005.109375 L 19317.421875 11911.621094 C 20976.453125 11476.15625 22272.683594 10180.433594 22708.148438 8520.894531 L 23801.632812 4355.785156 L 24895.121094 8520.894531 C 25330.582031 10179.925781 26626.304688 11476.15625 28285.84375 11911.621094 L 32450.953125 13005.109375 L 28285.84375 14098.59375 C 26626.8125 14534.058594 25330.582031 15829.78125 24895.121094 17489.320312 Z M 23801.632812 21654.429688 " clip-rule="nonzero"/></clipPath><linearGradient x1="95.18086" gradientTransform="matrix(50.812601, 0, 0, 50.812601, 10765.660981, 896.466334)" y1="60.086234" x2="417.875898" gradientUnits="userSpaceOnUse" y2="416.489511" id="afa0fffa72"><stop stop-opacity="1" stop-color="rgb(8.628845%, 95.289612%, 100%)" offset="0"/><stop stop-opacity="1" stop-color="rgb(8.628845%, 95.289612%, 100%)" offset="0.25"/><stop stop-opacity="1" stop-color="rgb(9.231567%, 94.511414%, 100%)" offset="0.253906"/><stop stop-opacity="1" stop-color="rgb(9.835815%, 93.734741%, 100%)" offset="0.257812"/><stop stop-opacity="1" stop-color="rgb(10.571289%, 92.785645%, 100%)" offset="0.261719"/><stop stop-opacity="1" stop-color="rgb(11.308289%, 91.836548%, 100%)" offset="0.265625"/><stop stop-opacity="1" stop-color="rgb(11.991882%, 91.075134%, 100%)" offset="0.269531"/><stop stop-opacity="1" stop-color="rgb(12.675476%, 90.313721%, 100%)" offset="0.273438"/><stop stop-opacity="1" stop-color="rgb(13.356018%, 89.558411%, 100%)" offset="0.277344"/><stop stop-opacity="1" stop-color="rgb(14.038086%, 88.804626%, 100%)" offset="0.28125"/><stop stop-opacity="1" stop-color="rgb(14.718628%, 88.050842%, 100%)" offset="0.285156"/><stop stop-opacity="1" stop-color="rgb(15.39917%, 87.297058%, 100%)" offset="0.289063"/><stop stop-opacity="1" stop-color="rgb(16.079712%, 86.543274%, 100%)" offset="0.292969"/><stop stop-opacity="1" stop-color="rgb(16.76178%, 85.78949%, 100%)" offset="0.296875"/><stop stop-opacity="1" stop-color="rgb(17.442322%, 85.035706%, 100%)" offset="0.300781"/><stop stop-opacity="1" stop-color="rgb(18.12439%, 84.281921%, 100%)" offset="0.304688"/><stop stop-opacity="1" stop-color="rgb(18.804932%, 83.528137%, 100%)" offset="0.308594"/><stop stop-opacity="1" stop-color="rgb(19.485474%, 82.774353%, 100%)" offset="0.3125"/><stop stop-opacity="1" stop-color="rgb(20.166016%, 82.020569%, 100%)" offset="0.316406"/><stop stop-opacity="1" stop-color="rgb(20.848083%, 81.266785%, 100%)" offset="0.320313"/><stop stop-opacity="1" stop-color="rgb(21.528625%, 80.511475%, 100%)" offset="0.324219"/><stop stop-opacity="1" stop-color="rgb(22.210693%, 79.75769%, 100%)" offset="0.328125"/><stop stop-opacity="1" stop-color="rgb(22.891235%, 79.003906%, 100%)" offset="0.332031"/><stop stop-opacity="1" stop-color="rgb(23.571777%, 78.250122%, 100%)" offset="0.335938"/><stop stop-opacity="1" stop-color="rgb(24.252319%, 77.496338%, 100%)" offset="0.339844"/><stop stop-opacity="1" stop-color="rgb(24.934387%, 76.742554%, 100%)" offset="0.34375"/><stop stop-opacity="1" stop-color="rgb(25.614929%, 75.98877%, 100%)" offset="0.347656"/><stop stop-opacity="1" stop-color="rgb(26.296997%, 75.234985%, 100%)" offset="0.351563"/><stop stop-opacity="1" stop-color="rgb(26.977539%, 74.481201%, 100%)" offset="0.355469"/><stop stop-opacity="1" stop-color="rgb(27.658081%, 73.727417%, 100%)" offset="0.359375"/><stop stop-opacity="1" stop-color="rgb(28.338623%, 72.973633%, 100%)" offset="0.363281"/><stop stop-opacity="1" stop-color="rgb(29.020691%, 72.219849%, 100%)" offset="0.367188"/><stop stop-opacity="1" stop-color="rgb(29.701233%, 71.464539%, 100%)" offset="0.371094"/><stop stop-opacity="1" stop-color="rgb(30.381775%, 70.710754%, 100%)" offset="0.375"/><stop stop-opacity="1" stop-color="rgb(31.062317%, 69.95697%, 100%)" offset="0.378906"/><stop stop-opacity="1" stop-color="rgb(31.744385%, 69.203186%, 100%)" offset="0.382812"/><stop stop-opacity="1" stop-color="rgb(32.424927%, 68.449402%, 100%)" offset="0.386719"/><stop stop-opacity="1" stop-color="rgb(33.106995%, 67.695618%, 100%)" offset="0.390625"/><stop stop-opacity="1" stop-color="rgb(33.735657%, 66.996765%, 100%)" offset="0.394531"/><stop stop-opacity="1" stop-color="rgb(34.364319%, 66.299438%, 100%)" offset="0.398438"/><stop stop-opacity="1" stop-color="rgb(34.9823%, 65.611267%, 100%)" offset="0.402344"/><stop stop-opacity="1" stop-color="rgb(35.601807%, 64.924622%, 100%)" offset="0.40625"/><stop stop-opacity="1" stop-color="rgb(36.219788%, 64.23645%, 100%)" offset="0.410156"/><stop stop-opacity="1" stop-color="rgb(36.839294%, 63.549805%, 100%)" offset="0.414063"/><stop stop-opacity="1" stop-color="rgb(37.457275%, 62.861633%, 100%)" offset="0.417969"/><stop stop-opacity="1" stop-color="rgb(38.076782%, 62.173462%, 100%)" offset="0.421875"/><stop stop-opacity="1" stop-color="rgb(38.694763%, 61.485291%, 100%)" offset="0.425781"/><stop stop-opacity="1" stop-color="rgb(39.31427%, 60.798645%, 100%)" offset="0.429688"/><stop stop-opacity="1" stop-color="rgb(39.932251%, 60.110474%, 100%)" offset="0.433594"/><stop stop-opacity="1" stop-color="rgb(40.551758%, 59.423828%, 100%)" offset="0.4375"/><stop stop-opacity="1" stop-color="rgb(41.169739%, 58.735657%, 100%)" offset="0.441406"/><stop stop-opacity="1" stop-color="rgb(41.789246%, 58.049011%, 100%)" offset="0.445313"/><stop stop-opacity="1" stop-color="rgb(42.407227%, 57.36084%, 100%)" offset="0.449219"/><stop stop-opacity="1" stop-color="rgb(43.026733%, 56.674194%, 100%)" offset="0.453125"/><stop stop-opacity="1" stop-color="rgb(43.644714%, 55.986023%, 100%)" offset="0.457031"/><stop stop-opacity="1" stop-color="rgb(44.264221%, 55.299377%, 100%)" offset="0.460938"/><stop stop-opacity="1" stop-color="rgb(44.882202%, 54.611206%, 100%)" offset="0.464844"/><stop stop-opacity="1" stop-color="rgb(45.501709%, 53.924561%, 100%)" offset="0.46875"/><stop stop-opacity="1" stop-color="rgb(46.11969%, 53.236389%, 100%)" offset="0.472656"/><stop stop-opacity="1" stop-color="rgb(46.739197%, 52.549744%, 100%)" offset="0.476563"/><stop stop-opacity="1" stop-color="rgb(47.357178%, 51.861572%, 100%)" offset="0.480469"/><stop stop-opacity="1" stop-color="rgb(47.976685%, 51.174927%, 100%)" offset="0.484375"/><stop stop-opacity="1" stop-color="rgb(48.594666%, 50.486755%, 100%)" offset="0.488281"/><stop stop-opacity="1" stop-color="rgb(49.214172%, 49.80011%, 100%)" offset="0.492188"/><stop stop-opacity="1" stop-color="rgb(49.832153%, 49.111938%, 100%)" offset="0.496094"/><stop stop-opacity="1" stop-color="rgb(50.45166%, 48.425293%, 100%)" offset="0.5"/><stop stop-opacity="1" stop-color="rgb(50.991821%, 47.828674%, 100%)" offset="0.503906"/><stop stop-opacity="1" stop-color="rgb(51.531982%, 47.233582%, 100%)" offset="0.507813"/><stop stop-opacity="1" stop-color="rgb(52.01416%, 46.707153%, 100%)" offset="0.511719"/><stop stop-opacity="1" stop-color="rgb(52.496338%, 46.180725%, 100%)" offset="0.515625"/><stop stop-opacity="1" stop-color="rgb(52.978516%, 45.652771%, 100%)" offset="0.519531"/><stop stop-opacity="1" stop-color="rgb(53.460693%, 45.126343%, 100%)" offset="0.523438"/><stop stop-opacity="1" stop-color="rgb(53.941345%, 44.599915%, 100%)" offset="0.527344"/><stop stop-opacity="1" stop-color="rgb(54.423523%, 44.073486%, 100%)" offset="0.53125"/><stop stop-opacity="1" stop-color="rgb(54.905701%, 43.545532%, 100%)" offset="0.535156"/><stop stop-opacity="1" stop-color="rgb(55.387878%, 43.019104%, 100%)" offset="0.539062"/><stop stop-opacity="1" stop-color="rgb(55.86853%, 42.492676%, 100%)" offset="0.542969"/><stop stop-opacity="1" stop-color="rgb(56.350708%, 41.966248%, 100%)" offset="0.546875"/><stop stop-opacity="1" stop-color="rgb(56.832886%, 41.438293%, 100%)" offset="0.550781"/><stop stop-opacity="1" stop-color="rgb(57.315063%, 40.911865%, 100%)" offset="0.554688"/><stop stop-opacity="1" stop-color="rgb(57.797241%, 40.385437%, 100%)" offset="0.558594"/><stop stop-opacity="1" stop-color="rgb(58.279419%, 39.859009%, 100%)" offset="0.5625"/><stop stop-opacity="1" stop-color="rgb(58.760071%, 39.331055%, 100%)" offset="0.566406"/><stop stop-opacity="1" stop-color="rgb(59.242249%, 38.804626%, 100%)" offset="0.570313"/><stop stop-opacity="1" stop-color="rgb(59.724426%, 38.278198%, 100%)" offset="0.574219"/><stop stop-opacity="1" stop-color="rgb(60.206604%, 37.75177%, 100%)" offset="0.578125"/><stop stop-opacity="1" stop-color="rgb(60.688782%, 37.225342%, 100%)" offset="0.582031"/><stop stop-opacity="1" stop-color="rgb(61.170959%, 36.698914%, 100%)" offset="0.585938"/><stop stop-opacity="1" stop-color="rgb(61.651611%, 36.170959%, 100%)" offset="0.589844"/><stop stop-opacity="1" stop-color="rgb(62.133789%, 35.644531%, 100%)" offset="0.59375"/><stop stop-opacity="1" stop-color="rgb(62.615967%, 35.118103%, 100%)" offset="0.597656"/><stop stop-opacity="1" stop-color="rgb(63.098145%, 34.591675%, 100%)" offset="0.601563"/><stop stop-opacity="1" stop-color="rgb(63.520813%, 34.115601%, 100%)" offset="0.605469"/><stop stop-opacity="1" stop-color="rgb(63.943481%, 33.639526%, 100%)" offset="0.609375"/><stop stop-opacity="1" stop-color="rgb(64.318848%, 33.204651%, 100%)" offset="0.613281"/><stop stop-opacity="1" stop-color="rgb(64.694214%, 32.769775%, 100%)" offset="0.617188"/><stop stop-opacity="1" stop-color="rgb(65.06958%, 32.333374%, 100%)" offset="0.621094"/><stop stop-opacity="1" stop-color="rgb(65.444946%, 31.898499%, 100%)" offset="0.625"/><stop stop-opacity="1" stop-color="rgb(65.820312%, 31.463623%, 100%)" offset="0.628906"/><stop stop-opacity="1" stop-color="rgb(66.197205%, 31.028748%, 100%)" offset="0.632812"/><stop stop-opacity="1" stop-color="rgb(66.572571%, 30.593872%, 100%)" offset="0.636719"/><stop stop-opacity="1" stop-color="rgb(66.947937%, 30.158997%, 100%)" offset="0.640625"/><stop stop-opacity="1" stop-color="rgb(67.323303%, 29.724121%, 100%)" offset="0.644531"/><stop stop-opacity="1" stop-color="rgb(67.698669%, 29.289246%, 100%)" offset="0.648438"/><stop stop-opacity="1" stop-color="rgb(68.074036%, 28.85437%, 100%)" offset="0.652344"/><stop stop-opacity="1" stop-color="rgb(68.449402%, 28.419495%, 100%)" offset="0.65625"/><stop stop-opacity="1" stop-color="rgb(68.824768%, 27.984619%, 100%)" offset="0.660156"/><stop stop-opacity="1" stop-color="rgb(69.200134%, 27.549744%, 100%)" offset="0.664063"/><stop stop-opacity="1" stop-color="rgb(69.5755%, 27.114868%, 100%)" offset="0.667969"/><stop stop-opacity="1" stop-color="rgb(69.950867%, 26.679993%, 100%)" offset="0.671875"/><stop stop-opacity="1" stop-color="rgb(70.326233%, 26.245117%, 100%)" offset="0.675781"/><stop stop-opacity="1" stop-color="rgb(70.701599%, 25.810242%, 100%)" offset="0.679688"/><stop stop-opacity="1" stop-color="rgb(70.985413%, 25.523376%, 100%)" offset="0.683594"/><stop stop-opacity="1" stop-color="rgb(71.269226%, 25.236511%, 100%)" offset="0.6875"/><stop stop-opacity="1" stop-color="rgb(71.499634%, 25.035095%, 100%)" offset="0.691406"/><stop stop-opacity="1" stop-color="rgb(71.730042%, 24.833679%, 100%)" offset="0.695312"/><stop stop-opacity="1" stop-color="rgb(71.960449%, 24.632263%, 100%)" offset="0.699219"/><stop stop-opacity="1" stop-color="rgb(72.190857%, 24.432373%, 100%)" offset="0.703125"/><stop stop-opacity="1" stop-color="rgb(72.419739%, 24.230957%, 100%)" offset="0.707031"/><stop stop-opacity="1" stop-color="rgb(72.650146%, 24.031067%, 100%)" offset="0.710938"/><stop stop-opacity="1" stop-color="rgb(72.880554%, 23.829651%, 100%)" offset="0.714844"/><stop stop-opacity="1" stop-color="rgb(73.110962%, 23.629761%, 100%)" offset="0.71875"/><stop stop-opacity="1" stop-color="rgb(73.34137%, 23.428345%, 100%)" offset="0.722656"/><stop stop-opacity="1" stop-color="rgb(73.571777%, 23.226929%, 100%)" offset="0.726562"/><stop stop-opacity="1" stop-color="rgb(73.800659%, 23.025513%, 100%)" offset="0.730469"/><stop stop-opacity="1" stop-color="rgb(74.031067%, 22.825623%, 100%)" offset="0.734375"/><stop stop-opacity="1" stop-color="rgb(74.075317%, 22.787476%, 100%)" offset="0.75"/><stop stop-opacity="1" stop-color="rgb(74.119568%, 22.749329%, 100%)" offset="1"/></linearGradient><clipPath id="7eeeeb1136"><rect x="0" width="39952" y="0" height="22446"/></clipPath></defs><g clip-path="url(#8ab8638695)"><path fill="#ffffff" d="M 0 0.140625 L 39952 0.140625 L 39952 22445.859375 L 0 22445.859375 Z M 0 0.140625 " fill-opacity="1" fill-rule="nonzero"/><g transform="matrix(1, 0, 0, 1, 0, 0.00000000000247941)"><g clip-path="url(#7eeeeb1136)"><g clip-path="url(#82cdc90e07)"><path fill="#394d54" d="M 23048.265625 7130.488281 L 26583.472656 7130.488281 L 26583.472656 10755.453125 L 28371.171875 10755.453125 C 28475.429688 10754.953125 28579.632812 10752.339844 28683.785156 10747.621094 C 28787.9375 10742.902344 28891.953125 10736.078125 28995.832031 10727.148438 C 29099.710938 10718.222656 29203.363281 10707.195312 29306.800781 10694.074219 C 29410.234375 10680.953125 29513.363281 10665.742188 29616.191406 10648.449219 C 29719.015625 10631.152344 29821.445312 10611.785156 29923.488281 10590.347656 C 30025.53125 10568.90625 30127.105469 10545.414062 30228.203125 10519.863281 C 30329.300781 10494.3125 30429.84375 10466.730469 30529.835938 10437.113281 C 30629.824219 10407.492188 30729.179688 10375.867188 30827.902344 10342.226562 C 31213.074219 10211.207031 31643.460938 10029.789062 32021.933594 9801.339844 C 31522.886719 9147.90625 31268.335938 8323.132812 31184.605469 7508.441406 C 31082.449219 6402.304688 31305.179688 4961.894531 32052.078125 4095.96875 L 32423.851562 3665.105469 L 32867.636719 4022.058594 C 33982.960938 4920.738281 34920.769531 6176.375 35086.5625 7608.386719 C 36428.804688 7211.957031 38005.496094 7306.027344 39189.484375 7991.375 L 39675.136719 8272.738281 L 39419.75 8773.3125 C 38425.839844 10730.257812 36332.511719 11337.496094 34286.914062 11229.992188 C 31225.632812 18877.1875 24561.320312 22497.953125 16481.085938 22497.953125 C 12306.15625 22497.953125 8476.207031 20932.398438 6295.796875 17217.566406 C 6167.6875 16986.597656 6058.832031 16745.550781 5942.445312 16508.699219 C 5205.59375 14873.433594 4960.257812 13081.949219 5126.046875 11301.382812 L 5176.289062 10765.535156 L 8190.675781 10765.535156 L 8190.675781 7133.011719 L 11725.886719 7133.011719 L 11725.886719 3586.996094 L 18797.140625 3586.996094 L 18797.140625 40.980469 L 23039.894531 40.980469 L 23039.894531 7133.847656 " fill-opacity="1" fill-rule="nonzero"/></g><g clip-path="url(#ac59821622)"><g clip-path="url(#1624882abd)"><path fill="#20c2ef" d="M 19395.402344 628.527344 L 22459.691406 628.527344 L 22459.691406 3702.183594 L 19395.09375 3702.183594 Z M 19395.402344 628.527344 " fill-opacity="1" fill-rule="nonzero"/></g></g><g clip-path="url(#20ce6871b5)"><g clip-path="url(#9fbfb91d8b)"><path fill="#000000" d="M 19771.132812 3446.121094 L 19771.132812 884.433594 M 20230.664062 3445.964844 L 20230.664062 884.433594 M 20694.839844 3445.964844 L 20694.839844 884.433594 M 21159.167969 3445.964844 L 21159.167969 884.433594 M 21623.496094 3445.964844 L 21623.496094 884.433594 M 22082.722656 3445.964844 L 22082.722656 884.433594 " fill-opacity="1" fill-rule="nonzero"/></g></g><g clip-path="url(#72d23e9ac0)"><g clip-path="url(#bf63f41ed2)"><path stroke-linecap="butt" transform="matrix(154.621428, 0, 0, 155.094069, 243.99117, 37.618585)" fill="none" stroke-linejoin="miter" d="M 126.29001 21.977001 L 126.29001 5.460009 M 129.261986 21.975994 L 129.261986 5.460009 M 132.264001 21.975994 L 132.264001 5.460009 M 135.267001 21.975994 L 135.267001 5.460009 M 138.27 21.975994 L 138.27 5.460009 M 141.240006 21.975994 L 141.240006 5.460009 " stroke="#394d54" stroke-width="1.56" stroke-opacity="1" stroke-miterlimit="4"/></g></g><g clip-path="url(#627d382e87)"><g clip-path="url(#d57ab2f805)"><path fill="#00acd3" d="M 22930.976562 3703.839844 L 25995.261719 3703.839844 L 25995.261719 630.34375 L 22930.667969 630.34375 Z M 22930.976562 3703.839844 " fill-opacity="1" fill-rule="nonzero"/></g></g><g clip-path="url(#a34065f756)"><g clip-path="url(#b1313906ee)"><path fill="#000000" d="M 23306.703125 884.695312 L 23306.703125 3446.386719 M 23766.238281 884.851562 L 23766.238281 3446.386719 M 24230.410156 884.851562 L 24230.410156 3446.386719 M 24694.742188 884.851562 L 24694.742188 3446.386719 M 25159.070312 884.851562 L 25159.070312 3446.386719 M 25618.296875 884.851562 L 25618.296875 3446.386719 " fill-opacity="1" fill-rule="nonzero"/></g></g><g clip-path="url(#db7a546b55)"><g clip-path="url(#e242bbc598)"><path stroke-linecap="butt" transform="matrix(154.621428, 0, 0, -155.094069, 3779.564654, 4293.198331)" fill="none" stroke-linejoin="miter" d="M 126.289989 21.977004 L 126.289989 5.459987 M 129.261991 21.975997 L 129.261991 5.459987 M 132.26398 21.975997 L 132.26398 5.459987 M 135.267005 21.975997 L 135.267005 5.459987 M 138.270005 21.975997 L 138.270005 5.459987 M 141.240011 21.975997 L 141.240011 5.459987 " stroke="#394d54" stroke-width="1.56" stroke-opacity="1" stroke-miterlimit="4"/></g></g><g clip-path="url(#ee49f0bbe9)"><g clip-path="url(#caa0783c8e)"><path fill="#00acd3" d="M 5253.109375 4173.355469 L 8317.398438 4173.355469 L 8317.398438 7246.855469 L 5252.800781 7246.855469 Z M 5253.109375 4173.355469 " fill-opacity="1" fill-rule="nonzero"/></g></g><g clip-path="url(#d7abbd0b63)"><g clip-path="url(#ae31bc8ef4)"><path fill="#20c2ef" d="M 5253.109375 7721.289062 L 8317.398438 7721.289062 L 8317.398438 10794.945312 L 5252.800781 10794.945312 Z M 5253.109375 7721.289062 " fill-opacity="1" fill-rule="nonzero"/></g></g><g clip-path="url(#246cd6d14d)"><g clip-path="url(#6c90b10d5c)"><path fill="#000000" d="M 5628.839844 6992.5 L 5628.839844 4430.8125 M 6088.371094 6992.347656 L 6088.371094 4430.8125 M 6552.546875 6992.347656 L 6552.546875 4430.8125 M 7016.875 6992.347656 L 7016.875 4430.8125 M 7481.203125 6992.347656 L 7481.203125 4430.8125 M 7940.429688 6992.347656 L 7940.429688 4430.8125 " fill-opacity="1" fill-rule="nonzero"/></g></g><g clip-path="url(#2762f083a9)"><g clip-path="url(#21cf75b657)"><path stroke-linecap="butt" transform="matrix(154.621428, 0, 0, 155.094069, -13898.302286, 3583.99946)" fill="none" stroke-linejoin="miter" d="M 126.290013 21.976988 L 126.290013 5.459996 M 129.261989 21.976006 L 129.261989 5.459996 M 132.264004 21.976006 L 132.264004 5.459996 M 135.267004 21.976006 L 135.267004 5.459996 M 138.270004 21.976006 L 138.270004 5.459996 M 141.24001 21.976006 L 141.24001 5.459996 " stroke="#394d54" stroke-width="1.56" stroke-opacity="1" stroke-miterlimit="4"/></g></g><g clip-path="url(#fabaebe0ec)"><g clip-path="url(#3801715bf7)"><path fill="#000000" d="M 5628.839844 10538.882812 L 5628.839844 7977.195312 M 6088.371094 10538.726562 L 6088.371094 7977.195312 M 6552.546875 10538.726562 L 6552.546875 7977.195312 M 7016.875 10538.726562 L 7016.875 7977.195312 M 7481.203125 10538.726562 L 7481.203125 7977.195312 M 7940.429688 10538.726562 L 7940.429688 7977.195312 " fill-opacity="1" fill-rule="nonzero"/></g></g><g clip-path="url(#214d44588c)"><g clip-path="url(#91851e592c)"><path stroke-linecap="butt" transform="matrix(154.621428, 0, 0, 155.094069, -13898.302286, 7130.380306)" fill="none" stroke-linejoin="miter" d="M 126.290013 21.977001 L 126.290013 5.460009 M 129.261989 21.975994 L 129.261989 5.460009 M 132.264004 21.975994 L 132.264004 5.460009 M 135.267004 21.975994 L 135.267004 5.460009 M 138.270004 21.975994 L 138.270004 5.460009 M 141.24001 21.975994 L 141.24001 5.460009 " stroke="#394d54" stroke-width="1.56" stroke-opacity="1" stroke-miterlimit="4"/></g></g><g clip-path="url(#795351f0a6)"><g clip-path="url(#07e267149d)"><path fill="#00acd3" d="M 8788.679688 10796.601562 L 11852.96875 10796.601562 L 11852.96875 7723.105469 L 8788.375 7723.105469 Z M 8788.679688 10796.601562 " fill-opacity="1" fill-rule="nonzero"/></g></g><g clip-path="url(#28de0be401)"><g clip-path="url(#ebf9266a13)"><path fill="#20c2ef" d="M 8788.679688 7248.671875 L 11852.96875 7248.671875 L 11852.96875 4175.015625 L 8788.375 4175.015625 Z M 8788.679688 7248.671875 " fill-opacity="1" fill-rule="nonzero"/></g></g><g clip-path="url(#81c30f6330)"><g clip-path="url(#7b280e8e93)"><path fill="#000000" d="M 9164.410156 7977.457031 L 9164.410156 10539.148438 M 9623.945312 7977.613281 L 9623.945312 10539.148438 M 10088.117188 7977.613281 L 10088.117188 10539.148438 M 10552.449219 7977.613281 L 10552.449219 10539.148438 M 11016.777344 7977.613281 L 11016.777344 10539.148438 M 11476.003906 7977.613281 L 11476.003906 10539.148438 " fill-opacity="1" fill-rule="nonzero"/></g></g><g clip-path="url(#05840da6e1)"><g clip-path="url(#112bd0b5da)"><path stroke-linecap="butt" transform="matrix(154.621428, 0, 0, -155.094069, -10362.7286, 11385.960071)" fill="none" stroke-linejoin="miter" d="M 126.289991 21.977004 L 126.289991 5.459987 M 129.261993 21.975997 L 129.261993 5.459987 M 132.263982 21.975997 L 132.263982 5.459987 M 135.267007 21.975997 L 135.267007 5.459987 M 138.270007 21.975997 L 138.270007 5.459987 M 141.240013 21.975997 L 141.240013 5.459987 " stroke="#394d54" stroke-width="1.56" stroke-opacity="1" stroke-miterlimit="4"/></g></g><g clip-path="url(#de7c738684)"><g clip-path="url(#823d601eaf)"><path fill="#000000" d="M 9164.410156 4431.078125 L 9164.410156 6992.765625 M 9623.945312 4431.230469 L 9623.945312 6992.765625 M 10088.117188 4431.230469 L 10088.117188 6992.765625 M 10552.449219 4431.230469 L 10552.449219 6992.765625 M 11016.777344 4431.230469 L 11016.777344 6992.765625 M 11476.003906 4431.230469 L 11476.003906 6992.765625 " fill-opacity="1" fill-rule="nonzero"/></g></g><g clip-path="url(#b5cbcc7fca)"><g clip-path="url(#97c01a4d10)"><path stroke-linecap="butt" transform="matrix(154.621428, 0, 0, -155.094069, -10362.7286, 7839.578841)" fill="none" stroke-linejoin="miter" d="M 126.289991 21.976989 L 126.289991 5.459997 M 129.261993 21.976007 L 129.261993 5.459997 M 132.263982 21.976007 L 132.263982 5.459997 M 135.267007 21.976007 L 135.267007 5.459997 M 138.270007 21.976007 L 138.270007 5.459997 M 141.240013 21.976007 L 141.240013 5.459997 " stroke="#394d54" stroke-width="1.56" stroke-opacity="1" stroke-miterlimit="4"/></g></g><g clip-path="url(#1329c17c0a)"><g clip-path="url(#b814d22342)"><path fill="#00acd3" d="M 12324.253906 4173.355469 L 15388.542969 4173.355469 L 15388.542969 7246.855469 L 12323.945312 7246.855469 Z M 12324.253906 4173.355469 " fill-opacity="1" fill-rule="nonzero"/></g></g><g clip-path="url(#5a186742a1)"><g clip-path="url(#9a458ab3b2)"><path fill="#20c2ef" d="M 12324.253906 7721.289062 L 15388.542969 7721.289062 L 15388.542969 10794.945312 L 12323.945312 10794.945312 Z M 12324.253906 7721.289062 " fill-opacity="1" fill-rule="nonzero"/></g></g><g clip-path="url(#866b1151b3)"><g clip-path="url(#b1a98f7362)"><path fill="#000000" d="M 12699.984375 6992.5 L 12699.984375 4430.8125 M 13159.519531 6992.347656 L 13159.519531 4430.8125 M 13623.691406 6992.347656 L 13623.691406 4430.8125 M 14088.019531 6992.347656 L 14088.019531 4430.8125 M 14552.347656 6992.347656 L 14552.347656 4430.8125 M 15011.574219 6992.347656 L 15011.574219 4430.8125 " fill-opacity="1" fill-rule="nonzero"/></g></g><g clip-path="url(#5282fa9577)"><g clip-path="url(#7211630c18)"><path stroke-linecap="butt" transform="matrix(154.621428, 0, 0, 155.094069, -6827.155875, 3583.99946)" fill="none" stroke-linejoin="miter" d="M 126.290001 21.976988 L 126.290001 5.459996 M 129.262002 21.976006 L 129.262002 5.459996 M 132.263992 21.976006 L 132.263992 5.459996 M 135.266992 21.976006 L 135.266992 5.459996 M 138.269991 21.976006 L 138.269991 5.459996 M 141.239997 21.976006 L 141.239997 5.459996 " stroke="#394d54" stroke-width="1.56" stroke-opacity="1" stroke-miterlimit="4"/></g></g><g clip-path="url(#71e1495ed9)"><g clip-path="url(#48ebe5f6ab)"><path fill="#000000" d="M 12699.984375 10538.882812 L 12699.984375 7977.195312 M 13159.519531 10538.726562 L 13159.519531 7977.195312 M 13623.691406 10538.726562 L 13623.691406 7977.195312 M 14088.019531 10538.726562 L 14088.019531 7977.195312 M 14552.347656 10538.726562 L 14552.347656 7977.195312 M 15011.574219 10538.726562 L 15011.574219 7977.195312 " fill-opacity="1" fill-rule="nonzero"/></g></g><g clip-path="url(#7f2574b1cd)"><g clip-path="url(#64d9f8b043)"><path stroke-linecap="butt" transform="matrix(154.621428, 0, 0, 155.094069, -6827.155875, 7130.380306)" fill="none" stroke-linejoin="miter" d="M 126.290001 21.977001 L 126.290001 5.460009 M 129.262002 21.975994 L 129.262002 5.460009 M 132.263992 21.975994 L 132.263992 5.460009 M 135.266992 21.975994 L 135.266992 5.460009 M 138.269991 21.975994 L 138.269991 5.460009 M 141.239997 21.975994 L 141.239997 5.460009 " stroke="#394d54" stroke-width="1.56" stroke-opacity="1" stroke-miterlimit="4"/></g></g><g clip-path="url(#a3989ad036)"><g clip-path="url(#f5fc77a299)"><path fill="#00acd3" d="M 15859.828125 10796.601562 L 18924.117188 10796.601562 L 18924.117188 7723.105469 L 15859.519531 7723.105469 Z M 15859.828125 10796.601562 " fill-opacity="1" fill-rule="nonzero"/></g></g><g clip-path="url(#7a43dd9e4f)"><g clip-path="url(#83ee075998)"><path fill="#20c2ef" d="M 15859.828125 7248.671875 L 18924.117188 7248.671875 L 18924.117188 4175.015625 L 15859.519531 4175.015625 Z M 15859.828125 7248.671875 " fill-opacity="1" fill-rule="nonzero"/></g></g><g clip-path="url(#dc299e7c13)"><g clip-path="url(#cbbff9c81b)"><path fill="#000000" d="M 16235.558594 7977.457031 L 16235.558594 10539.148438 M 16695.089844 7977.613281 L 16695.089844 10539.148438 M 17159.265625 7977.613281 L 17159.265625 10539.148438 M 17623.59375 7977.613281 L 17623.59375 10539.148438 M 18087.921875 7977.613281 L 18087.921875 10539.148438 M 18547.148438 7977.613281 L 18547.148438 10539.148438 " fill-opacity="1" fill-rule="nonzero"/></g></g><g clip-path="url(#0ea0158736)"><g clip-path="url(#3748301809)"><path stroke-linecap="butt" transform="matrix(154.621428, 0, 0, -155.094069, -3291.582333, 11385.960071)" fill="none" stroke-linejoin="miter" d="M 126.290005 21.977004 L 126.290005 5.459987 M 129.261981 21.975997 L 129.261981 5.459987 M 132.263996 21.975997 L 132.263996 5.459987 M 135.266996 21.975997 L 135.266996 5.459987 M 138.269996 21.975997 L 138.269996 5.459987 M 141.240002 21.975997 L 141.240002 5.459987 " stroke="#394d54" stroke-width="1.56" stroke-opacity="1" stroke-miterlimit="4"/></g></g><g clip-path="url(#33ddf5d036)"><g clip-path="url(#2a74d92aa7)"><path fill="#000000" d="M 16235.558594 4431.078125 L 16235.558594 6992.765625 M 16695.089844 4431.230469 L 16695.089844 6992.765625 M 17159.265625 4431.230469 L 17159.265625 6992.765625 M 17623.59375 4431.230469 L 17623.59375 6992.765625 M 18087.921875 4431.230469 L 18087.921875 6992.765625 M 18547.148438 4431.230469 L 18547.148438 6992.765625 " fill-opacity="1" fill-rule="nonzero"/></g></g><g clip-path="url(#b7f73d81c7)"><g clip-path="url(#5fc1c06684)"><path stroke-linecap="butt" transform="matrix(154.621428, 0, 0, -155.094069, -3291.582333, 7839.578841)" fill="none" stroke-linejoin="miter" d="M 126.290005 21.976989 L 126.290005 5.459997 M 129.261981 21.976007 L 129.261981 5.459997 M 132.263996 21.976007 L 132.263996 5.459997 M 135.266996 21.976007 L 135.266996 5.459997 M 138.269996 21.976007 L 138.269996 5.459997 M 141.240002 21.976007 L 141.240002 5.459997 " stroke="#394d54" stroke-width="1.56" stroke-opacity="1" stroke-miterlimit="4"/></g></g><g clip-path="url(#57435ae6da)"><g clip-path="url(#54e6ce7da1)"><path fill="#00acd3" d="M 19395.402344 4173.355469 L 22459.691406 4173.355469 L 22459.691406 7246.855469 L 19395.09375 7246.855469 Z M 19395.402344 4173.355469 " fill-opacity="1" fill-rule="nonzero"/></g></g><g clip-path="url(#92fe69f3e3)"><g clip-path="url(#22279d5315)"><path fill="#20c2ef" d="M 19395.402344 7721.289062 L 22459.691406 7721.289062 L 22459.691406 10794.945312 L 19395.09375 10794.945312 Z M 19395.402344 7721.289062 " fill-opacity="1" fill-rule="nonzero"/></g></g><g clip-path="url(#1089d19132)"><g clip-path="url(#b63e93e05b)"><path fill="#000000" d="M 19771.132812 6992.5 L 19771.132812 4430.8125 M 20230.664062 6992.347656 L 20230.664062 4430.8125 M 20694.839844 6992.347656 L 20694.839844 4430.8125 M 21159.167969 6992.347656 L 21159.167969 4430.8125 M 21623.496094 6992.347656 L 21623.496094 4430.8125 M 22082.722656 6992.347656 L 22082.722656 4430.8125 " fill-opacity="1" fill-rule="nonzero"/></g></g><g clip-path="url(#36f7c27152)"><g clip-path="url(#cb6c104089)"><path stroke-linecap="butt" transform="matrix(154.621428, 0, 0, 155.094069, 243.99117, 3583.99946)" fill="none" stroke-linejoin="miter" d="M 126.29001 21.976988 L 126.29001 5.459996 M 129.261986 21.976006 L 129.261986 5.459996 M 132.264001 21.976006 L 132.264001 5.459996 M 135.267001 21.976006 L 135.267001 5.459996 M 138.27 21.976006 L 138.27 5.459996 M 141.240006 21.976006 L 141.240006 5.459996 " stroke="#394d54" stroke-width="1.56" stroke-opacity="1" stroke-miterlimit="4"/></g></g><g clip-path="url(#6785b806b0)"><g clip-path="url(#cb8bea815b)"><path fill="#000000" d="M 19771.132812 10538.882812 L 19771.132812 7977.195312 M 20230.664062 10538.726562 L 20230.664062 7977.195312 M 20694.839844 10538.726562 L 20694.839844 7977.195312 M 21159.167969 10538.726562 L 21159.167969 7977.195312 M 21623.496094 10538.726562 L 21623.496094 7977.195312 M 22082.722656 10538.726562 L 22082.722656 7977.195312 " fill-opacity="1" fill-rule="nonzero"/></g></g><g clip-path="url(#6d1340b8b1)"><g clip-path="url(#3d9cd8067f)"><path stroke-linecap="butt" transform="matrix(154.621428, 0, 0, 155.094069, 243.99117, 7130.380306)" fill="none" stroke-linejoin="miter" d="M 126.29001 21.977001 L 126.29001 5.460009 M 129.261986 21.975994 L 129.261986 5.460009 M 132.264001 21.975994 L 132.264001 5.460009 M 135.267001 21.975994 L 135.267001 5.460009 M 138.27 21.975994 L 138.27 5.460009 M 141.240006 21.975994 L 141.240006 5.460009 " stroke="#394d54" stroke-width="1.56" stroke-opacity="1" stroke-miterlimit="4"/></g></g><g clip-path="url(#a9af54c5b8)"><g clip-path="url(#d0bf9050a9)"><path fill="#00acd3" d="M 22930.976562 10796.601562 L 25995.261719 10796.601562 L 25995.261719 7723.105469 L 22930.667969 7723.105469 Z M 22930.976562 10796.601562 " fill-opacity="1" fill-rule="nonzero"/></g></g><g clip-path="url(#541dba962c)"><g clip-path="url(#552421558f)"><path fill="#20c2ef" d="M 22930.976562 7248.671875 L 25995.261719 7248.671875 L 25995.261719 4175.015625 L 22930.667969 4175.015625 Z M 22930.976562 7248.671875 " fill-opacity="1" fill-rule="nonzero"/></g></g><g clip-path="url(#d334e26ca2)"><g clip-path="url(#aa1b6dc399)"><path fill="#000000" d="M 23306.703125 7977.457031 L 23306.703125 10539.148438 M 23766.238281 7977.613281 L 23766.238281 10539.148438 M 24230.410156 7977.613281 L 24230.410156 10539.148438 M 24694.742188 7977.613281 L 24694.742188 10539.148438 M 25159.070312 7977.613281 L 25159.070312 10539.148438 M 25618.296875 7977.613281 L 25618.296875 10539.148438 " fill-opacity="1" fill-rule="nonzero"/></g></g><g clip-path="url(#8af254d5ee)"><g clip-path="url(#29c95a862e)"><path stroke-linecap="butt" transform="matrix(154.621428, 0, 0, -155.094069, 3779.564654, 11385.960071)" fill="none" stroke-linejoin="miter" d="M 126.289989 21.977004 L 126.289989 5.459987 M 129.261991 21.975997 L 129.261991 5.459987 M 132.26398 21.975997 L 132.26398 5.459987 M 135.267005 21.975997 L 135.267005 5.459987 M 138.270005 21.975997 L 138.270005 5.459987 M 141.240011 21.975997 L 141.240011 5.459987 " stroke="#394d54" stroke-width="1.56" stroke-opacity="1" stroke-miterlimit="4"/></g></g><g clip-path="url(#44829f97f0)"><g clip-path="url(#a815defdc2)"><path fill="#000000" d="M 23306.703125 4431.078125 L 23306.703125 6992.765625 M 23766.238281 4431.230469 L 23766.238281 6992.765625 M 24230.410156 4431.230469 L 24230.410156 6992.765625 M 24694.742188 4431.230469 L 24694.742188 6992.765625 M 25159.070312 4431.230469 L 25159.070312 6992.765625 M 25618.296875 4431.230469 L 25618.296875 6992.765625 " fill-opacity="1" fill-rule="nonzero"/></g></g><g clip-path="url(#ec3062d18b)"><g clip-path="url(#3f07a3be8f)"><path stroke-linecap="butt" transform="matrix(154.621428, 0, 0, -155.094069, 3779.564654, 7839.578841)" fill="none" stroke-linejoin="miter" d="M 126.289989 21.976989 L 126.289989 5.459997 M 129.261991 21.976007 L 129.261991 5.459997 M 132.26398 21.976007 L 132.26398 5.459997 M 135.267005 21.976007 L 135.267005 5.459997 M 138.270005 21.976007 L 138.270005 5.459997 M 141.240011 21.976007 L 141.240011 5.459997 " stroke="#394d54" stroke-width="1.56" stroke-opacity="1" stroke-miterlimit="4"/></g></g><g clip-path="url(#5c8c67d63a)"><g clip-path="url(#2c704014e4)"><path fill="#17b5eb" d="M 34503.460938 8471.632812 C 34740.496094 6623.6875 33361.738281 5172.007812 32506.679688 4482.925781 C 31521.277344 5625.65625 31368.203125 8620.523438 32914.105469 9881.285156 C 32051.320312 10649.929688 30233.433594 11346.613281 28371.949219 11346.613281 L 5500.347656 11346.613281 C 5319.441406 13295.679688 5500.347656 22681.351562 5500.347656 22681.351562 L 39053.199219 22681.351562 L 38900.585938 8502.03125 C 37447.148438 7660.800781 35578.703125 7929.113281 34502.6875 8471.480469 " fill-opacity="1" fill-rule="nonzero"/></g></g><g clip-path="url(#f0a5213df0)"><g clip-path="url(#5ea97bb087)"><path fill="#000000" d="M 5501.121094 13840.992188 L 5501.121094 22681.351562 L 39053.96875 22681.351562 L 39053.96875 13840.992188 " fill-opacity="0.17" fill-rule="nonzero"/></g></g><g clip-path="url(#23300c3529)"><g clip-path="url(#424fb2dce2)"><path fill="#d4edf1" d="M 17444.078125 21890.371094 C 15350.503906 20893.890625 14201.359375 19539.144531 13561.996094 18060.480469 L 7201.953125 18338.097656 L 10449.003906 22680.734375 L 17443.613281 21889.75 " fill-opacity="1" fill-rule="nonzero"/></g></g><g clip-path="url(#d807d5dfbd)"><g clip-path="url(#ae8476b2d7)"><path fill="#000000" d="M 34647.257812 8403.082031 L 34647.257812 8407.734375 C 31421.855469 12579.765625 26795.117188 16221.375 21828.214844 18135.234375 C 17397.535156 19842.511719 13534.628906 19850.574219 10869.421875 18479.542969 C 10582.441406 18317.007812 10301.03125 18136.476562 10019.003906 17965.875 C 8065.050781 16596.082031 6964.609375 14330.46875 7057.074219 11345.375 L 5501.582031 11345.375 L 5501.582031 22681.355469 L 39054.433594 22681.355469 L 39054.433594 7792.324219 L 35188.894531 7792.324219 Z M 34647.257812 8403.082031 " fill-opacity="0.085" fill-rule="nonzero"/></g></g><path stroke-linecap="round" transform="matrix(837.330382, 0, 0, 839.889854, -2327.031877, 10114.618274)" fill="none" stroke-linejoin="miter" d="M 11.496 9.613001 C 14.112001 9.755998 16.903 9.783001 19.338003 9.019001 " stroke="#394d54" stroke-width="0.628" stroke-opacity="1" stroke-miterlimit="4"/><path fill="#d4edf1" d="M 16041.484375 16626.285156 C 16041.46875 16640.148438 16041.117188 16654.007812 16040.429688 16667.855469 C 16039.738281 16681.703125 16038.707031 16695.523438 16037.339844 16709.324219 C 16035.972656 16723.121094 16034.269531 16736.875 16032.230469 16750.589844 C 16030.191406 16764.304688 16027.816406 16777.957031 16025.113281 16791.554688 C 16022.40625 16805.152344 16019.367188 16818.675781 16016 16832.121094 C 16012.632812 16845.570312 16008.9375 16858.925781 16004.914062 16872.191406 C 16000.894531 16885.457031 15996.550781 16898.617188 15991.886719 16911.667969 C 15987.226562 16924.722656 15982.246094 16937.652344 15976.949219 16950.457031 C 15971.652344 16963.265625 15966.046875 16975.9375 15960.132812 16988.46875 C 15954.214844 17001 15947.996094 17013.378906 15941.472656 17025.601562 C 15934.953125 17037.828125 15928.136719 17049.886719 15921.027344 17061.777344 C 15913.921875 17073.667969 15906.523438 17085.375 15898.839844 17096.902344 C 15891.15625 17108.429688 15883.199219 17119.761719 15874.960938 17130.894531 C 15866.726562 17142.03125 15858.222656 17152.957031 15849.453125 17163.675781 C 15840.683594 17174.394531 15831.65625 17184.886719 15822.371094 17195.160156 C 15813.085938 17205.433594 15803.558594 17215.472656 15793.785156 17225.277344 C 15784.007812 17235.082031 15774 17244.640625 15763.761719 17253.949219 C 15753.519531 17263.261719 15743.054688 17272.316406 15732.371094 17281.113281 C 15721.6875 17289.910156 15710.796875 17298.441406 15699.695312 17306.703125 C 15688.59375 17314.964844 15677.292969 17322.949219 15665.800781 17330.652344 C 15654.3125 17338.359375 15642.636719 17345.78125 15630.785156 17352.910156 C 15618.929688 17360.042969 15606.90625 17366.878906 15594.71875 17373.417969 C 15582.53125 17379.960938 15570.191406 17386.195312 15557.695312 17392.132812 C 15545.203125 17398.066406 15532.570312 17403.6875 15519.804688 17409 C 15507.035156 17414.3125 15494.144531 17419.308594 15481.128906 17423.984375 C 15468.117188 17428.664062 15455 17433.019531 15441.773438 17437.050781 C 15428.546875 17441.085938 15415.234375 17444.792969 15401.828125 17448.171875 C 15388.421875 17451.550781 15374.941406 17454.597656 15361.382812 17457.3125 C 15347.828125 17460.027344 15334.214844 17462.40625 15320.542969 17464.453125 C 15306.871094 17466.496094 15293.15625 17468.203125 15279.402344 17469.574219 C 15265.644531 17470.945312 15251.867188 17471.980469 15238.058594 17472.671875 C 15224.253906 17473.367188 15210.441406 17473.71875 15196.617188 17473.734375 C 15182.785156 17473.734375 15168.964844 17473.394531 15155.148438 17472.710938 C 15141.335938 17472.03125 15127.542969 17471.011719 15113.777344 17469.652344 C 15100.011719 17468.292969 15086.289062 17466.597656 15072.609375 17464.5625 C 15058.925781 17462.527344 15045.300781 17460.160156 15031.734375 17457.453125 C 15018.167969 17454.75 15004.675781 17451.710938 14991.257812 17448.34375 C 14977.839844 17444.972656 14964.511719 17441.277344 14951.273438 17437.25 C 14938.035156 17433.226562 14924.90625 17428.878906 14911.882812 17424.207031 C 14898.859375 17419.535156 14885.957031 17414.546875 14873.175781 17409.242188 C 14860.394531 17403.933594 14847.753906 17398.316406 14835.25 17392.390625 C 14822.742188 17386.460938 14810.390625 17380.226562 14798.1875 17373.691406 C 14785.988281 17367.15625 14773.953125 17360.324219 14762.085938 17353.195312 C 14750.222656 17346.066406 14738.535156 17338.648438 14727.03125 17330.945312 C 14715.527344 17323.242188 14704.21875 17315.261719 14693.105469 17307 C 14681.992188 17298.738281 14671.089844 17290.210938 14660.394531 17281.414062 C 14649.699219 17272.617188 14639.222656 17263.5625 14628.96875 17254.25 C 14618.71875 17244.9375 14608.699219 17235.378906 14598.910156 17225.574219 C 14589.125 17215.765625 14579.585938 17205.726562 14570.292969 17195.453125 C 14561 17185.175781 14551.960938 17174.679688 14543.179688 17163.957031 C 14534.398438 17153.238281 14525.886719 17142.308594 14517.640625 17131.167969 C 14509.394531 17120.03125 14501.425781 17108.695312 14493.734375 17097.164062 C 14486.042969 17085.632812 14478.636719 17073.921875 14471.519531 17062.023438 C 14464.398438 17050.128906 14457.574219 17038.066406 14451.046875 17025.835938 C 14444.519531 17013.601562 14438.292969 17001.21875 14432.371094 16988.679688 C 14426.445312 16976.140625 14420.835938 16963.464844 14415.53125 16950.652344 C 14410.226562 16937.839844 14405.242188 16924.902344 14400.570312 16911.84375 C 14395.902344 16898.785156 14391.554688 16885.617188 14387.527344 16872.34375 C 14383.503906 16859.070312 14379.804688 16845.703125 14376.433594 16832.25 C 14373.058594 16818.792969 14370.019531 16805.261719 14367.308594 16791.65625 C 14364.597656 16778.054688 14362.222656 16764.390625 14360.179688 16750.667969 C 14358.136719 16736.945312 14356.433594 16723.179688 14355.0625 16709.375 C 14353.695312 16695.570312 14352.664062 16681.738281 14351.972656 16667.882812 C 14351.28125 16654.023438 14350.929688 16640.160156 14350.914062 16626.285156 C 14350.914062 16612.402344 14351.253906 16598.527344 14351.929688 16584.660156 C 14352.613281 16570.796875 14353.632812 16556.953125 14354.988281 16543.136719 C 14356.34375 16529.320312 14358.035156 16515.546875 14360.066406 16501.816406 C 14362.097656 16488.082031 14364.464844 16474.40625 14367.164062 16460.792969 C 14369.863281 16447.175781 14372.894531 16433.632812 14376.261719 16420.167969 C 14379.625 16406.699219 14383.3125 16393.324219 14387.332031 16380.039062 C 14391.347656 16366.753906 14395.6875 16353.578125 14400.351562 16340.503906 C 14405.015625 16327.433594 14409.992188 16314.484375 14415.292969 16301.660156 C 14420.585938 16288.832031 14426.195312 16276.144531 14432.113281 16263.59375 C 14438.03125 16251.042969 14444.25 16238.648438 14450.777344 16226.402344 C 14457.300781 16214.160156 14464.121094 16202.085938 14471.234375 16190.175781 C 14478.351562 16178.269531 14485.753906 16166.542969 14493.441406 16155 C 14501.132812 16143.457031 14509.097656 16132.109375 14517.34375 16120.960938 C 14525.589844 16109.808594 14534.101562 16098.867188 14542.882812 16088.136719 C 14551.660156 16077.40625 14560.695312 16066.894531 14569.992188 16056.609375 C 14579.289062 16046.320312 14588.828125 16036.269531 14598.617188 16026.453125 C 14608.402344 16016.636719 14618.425781 16007.066406 14628.679688 15997.742188 C 14638.9375 15988.421875 14649.414062 15979.355469 14660.113281 15970.546875 C 14670.8125 15961.742188 14681.71875 15953.203125 14692.835938 15944.933594 C 14703.949219 15936.664062 14715.261719 15928.671875 14726.769531 15920.957031 C 14738.277344 15913.246094 14749.96875 15905.820312 14761.839844 15898.683594 C 14773.710938 15891.546875 14785.75 15884.707031 14797.957031 15878.160156 C 14810.164062 15871.617188 14822.523438 15865.375 14835.035156 15859.441406 C 14847.546875 15853.503906 14860.195312 15847.878906 14872.984375 15842.566406 C 14885.769531 15837.253906 14898.679688 15832.261719 14911.710938 15827.582031 C 14924.742188 15822.90625 14937.878906 15818.554688 14951.125 15814.523438 C 14964.367188 15810.492188 14977.703125 15806.789062 14991.128906 15803.417969 C 15004.554688 15800.042969 15018.054688 15797.003906 15031.628906 15794.292969 C 15045.203125 15791.585938 15058.835938 15789.214844 15072.527344 15787.175781 C 15086.21875 15785.140625 15099.949219 15783.441406 15113.726562 15782.082031 C 15127.496094 15780.71875 15141.296875 15779.699219 15155.121094 15779.019531 C 15168.945312 15778.335938 15182.777344 15777.996094 15196.617188 15777.996094 C 15210.449219 15778.007812 15224.273438 15778.363281 15238.089844 15779.058594 C 15251.902344 15779.75 15265.691406 15780.785156 15279.457031 15782.15625 C 15293.21875 15783.53125 15306.941406 15785.242188 15320.621094 15787.289062 C 15334.300781 15789.335938 15347.925781 15791.71875 15361.488281 15794.4375 C 15375.050781 15797.15625 15388.539062 15800.207031 15401.953125 15803.589844 C 15415.367188 15806.972656 15428.691406 15810.679688 15441.925781 15814.71875 C 15455.160156 15818.757812 15468.285156 15823.117188 15481.304688 15827.804688 C 15494.324219 15832.488281 15507.222656 15837.488281 15519.996094 15842.808594 C 15532.773438 15848.128906 15545.410156 15853.757812 15557.910156 15859.699219 C 15570.410156 15865.636719 15582.757812 15871.882812 15594.949219 15878.433594 C 15607.144531 15884.980469 15619.171875 15891.824219 15631.03125 15898.964844 C 15642.890625 15906.105469 15654.566406 15913.535156 15666.0625 15921.25 C 15677.558594 15928.964844 15688.859375 15936.957031 15699.964844 15945.226562 C 15711.070312 15953.5 15721.964844 15962.039062 15732.652344 15970.847656 C 15743.339844 15979.65625 15753.808594 15988.71875 15764.050781 15998.042969 C 15774.296875 16007.367188 15784.308594 16016.933594 15794.082031 16026.75 C 15803.859375 16036.566406 15813.386719 16046.613281 15822.671875 16056.898438 C 15831.957031 16067.183594 15840.984375 16077.691406 15849.753906 16088.417969 C 15858.523438 16099.148438 15867.023438 16110.085938 15875.261719 16121.234375 C 15883.496094 16132.378906 15891.453125 16143.722656 15899.132812 16155.261719 C 15906.8125 16166.800781 15914.207031 16178.519531 15921.3125 16190.425781 C 15928.421875 16202.328125 15935.234375 16214.398438 15941.75 16226.636719 C 15948.265625 16238.871094 15954.480469 16251.265625 15960.390625 16263.808594 C 15966.300781 16276.351562 15971.902344 16289.03125 15977.191406 16301.851562 C 15982.480469 16314.671875 15987.453125 16327.613281 15992.113281 16340.675781 C 15996.765625 16353.742188 16001.101562 16366.910156 16005.113281 16380.1875 C 16009.128906 16393.46875 16012.816406 16406.835938 16016.171875 16420.292969 C 16019.535156 16433.753906 16022.5625 16447.285156 16025.257812 16460.894531 C 16027.953125 16474.5 16030.316406 16488.167969 16032.34375 16501.890625 C 16034.371094 16515.617188 16036.0625 16529.382812 16037.417969 16543.191406 C 16038.773438 16556.996094 16039.789062 16570.828125 16040.464844 16584.6875 C 16041.144531 16598.542969 16041.484375 16612.410156 16041.484375 16626.285156 Z M 16041.484375 16626.285156 " fill-opacity="1" fill-rule="nonzero"/><path fill="#394d54" d="M 15424.375 16061.039062 C 15350.6875 16103.03125 15300.449219 16183.664062 15300.449219 16276.050781 C 15300.449219 16412.953125 15410.976562 16523.816406 15547.460938 16523.816406 C 15641.242188 16523.816406 15714.925781 16471.746094 15765.164062 16394.476562 C 15772.722656 16412.882812 15779.371094 16431.613281 15785.113281 16450.671875 C 15790.851562 16469.726562 15795.652344 16489.019531 15799.519531 16508.542969 C 15803.382812 16528.070312 15806.292969 16547.738281 15808.246094 16567.546875 C 15810.203125 16587.359375 15811.191406 16607.21875 15811.21875 16627.125 C 15811.21875 16963.082031 15539.925781 17234.363281 15205.828125 17234.363281 C 14871.734375 17234.363281 14600.441406 16962.238281 14600.441406 16627.125 C 14600.441406 16292.007812 14871.734375 16019.882812 15205.828125 16019.882812 C 15224.550781 16019.859375 15243.230469 16020.707031 15261.871094 16022.429688 C 15280.515625 16024.152344 15299.035156 16026.738281 15317.4375 16030.191406 C 15335.835938 16033.640625 15354.039062 16037.945312 15372.039062 16043.097656 C 15390.039062 16048.25 15407.761719 16054.230469 15425.210938 16061.039062 Z M 243.574219 14020.105469 L 39567.960938 14020.105469 C 38711.371094 13801.734375 36859.195312 13516.171875 37164.824219 12382.320312 C 35607.386719 14189.761719 31852.800781 13642.15625 30905.78125 12758.589844 C 29850.742188 14293.910156 23707.25 13710.1875 23279.375 12506.625 C 21956.390625 14063.78125 17857.660156 14063.78125 16534.679688 12506.625 C 16105.964844 13702.628906 9963.308594 14287.191406 8914.972656 12758.589844 C 7958.738281 13642.15625 4204.152344 14190.601562 2646.714844 12382.320312 C 2952.339844 13507.773438 1099.328125 13810.132812 243.578125 14020.105469 " fill-opacity="1" fill-rule="nonzero"/><g clip-path="url(#233aeb6d23)"><g clip-path="url(#70680b55d9)"><path fill="url(#afa0fffa72)" d="M 15152.3125 4356.804688 L 15152.3125 21653.414062 L 32447.398438 21653.414062 L 32447.398438 4356.804688 Z M 15152.3125 4356.804688 " fill-rule="nonzero"/></g></g></g></g></g></svg>