<svg width="72" height="72" viewBox="0 0 72 72" fill="none" xmlns="http://www.w3.org/2000/svg">
<g filter="url(#filter0_di_66_4)">
<path d="M34.9806 1.95296C35.3028 1.08235 36.5342 1.08234 36.8563 1.95296L44.5368 22.7093C44.6381 22.983 44.8539 23.1988 45.1276 23.3001L65.8839 30.9806C66.7546 31.3028 66.7546 32.5342 65.884 32.8563L45.1276 40.5368C44.8539 40.6381 44.6381 40.8539 44.5368 41.1276L36.8563 61.8839C36.5342 62.7546 35.3028 62.7546 34.9806 61.884L27.3001 41.1276C27.1988 40.8539 26.983 40.6381 26.7093 40.5368L5.95296 32.8563C5.08235 32.5342 5.08234 31.3028 5.95296 30.9806L26.7093 23.3001C26.983 23.1988 27.1988 22.983 27.3001 22.7093L34.9806 1.95296Z" fill="url(#paint0_linear_66_4)"/>
<path d="M34.9806 1.95296C35.3028 1.08235 36.5342 1.08234 36.8563 1.95296L44.5368 22.7093C44.6381 22.983 44.8539 23.1988 45.1276 23.3001L65.8839 30.9806C66.7546 31.3028 66.7546 32.5342 65.884 32.8563L45.1276 40.5368C44.8539 40.6381 44.6381 40.8539 44.5368 41.1276L36.8563 61.8839C36.5342 62.7546 35.3028 62.7546 34.9806 61.884L27.3001 41.1276C27.1988 40.8539 26.983 40.6381 26.7093 40.5368L5.95296 32.8563C5.08235 32.5342 5.08234 31.3028 5.95296 30.9806L26.7093 23.3001C26.983 23.1988 27.1988 22.983 27.3001 22.7093L34.9806 1.95296Z" stroke="url(#paint1_linear_66_4)" stroke-miterlimit="16"/>
</g>
<defs>
<filter id="filter0_di_66_4" x="4.86374e-05" y="2.86102e-06" width="71.8368" height="71.8369" filterUnits="userSpaceOnUse" color-interpolation-filters="sRGB">
<feFlood flood-opacity="0" result="BackgroundImageFix"/>
<feColorMatrix in="SourceAlpha" type="matrix" values="0 0 0 0 0 0 0 0 0 0 0 0 0 0 0 0 0 0 127 0" result="hardAlpha"/>
<feOffset dy="4"/>
<feGaussianBlur stdDeviation="2.4"/>
<feComposite in2="hardAlpha" operator="out"/>
<feColorMatrix type="matrix" values="0 0 0 0 0.799584 0 0 0 0 0.209458 0 0 0 0 0.947115 0 0 0 0.51 0"/>
<feBlend mode="normal" in2="BackgroundImageFix" result="effect1_dropShadow_66_4"/>
<feBlend mode="normal" in="SourceGraphic" in2="effect1_dropShadow_66_4" result="shape"/>
<feColorMatrix in="SourceAlpha" type="matrix" values="0 0 0 0 0 0 0 0 0 0 0 0 0 0 0 0 0 0 127 0" result="hardAlpha"/>
<feOffset dy="4"/>
<feGaussianBlur stdDeviation="2"/>
<feComposite in2="hardAlpha" operator="arithmetic" k2="-1" k3="1"/>
<feColorMatrix type="matrix" values="0 0 0 0 0 0 0 0 0 0 0 0 0 0 0 0 0 0 0.25 0"/>
<feBlend mode="normal" in2="shape" result="effect2_innerShadow_66_4"/>
</filter>
<linearGradient id="paint0_linear_66_4" x1="35.9185" y1="-0.581543" x2="35.9185" y2="64.4185" gradientUnits="userSpaceOnUse">
<stop stop-color="#F5FAB2"/>
<stop offset="0.504808" stop-color="#F9D065"/>
<stop offset="1" stop-color="#9A5F3B"/>
</linearGradient>
<linearGradient id="paint1_linear_66_4" x1="35.9185" y1="-0.581543" x2="35.9185" y2="64.4185" gradientUnits="userSpaceOnUse">
<stop stop-color="#382750"/>
<stop offset="1" stop-color="#944667"/>
</linearGradient>
</defs>
</svg>
